<?xml version="1.0" encoding="UTF-8" standalone="no"?>
<svg
   xmlns:osb="http://www.openswatchbook.org/uri/2009/osb"
   xmlns:dc="http://purl.org/dc/elements/1.1/"
   xmlns:cc="http://creativecommons.org/ns#"
   xmlns:rdf="http://www.w3.org/1999/02/22-rdf-syntax-ns#"
   xmlns:svg="http://www.w3.org/2000/svg"
   xmlns="http://www.w3.org/2000/svg"
   xmlns:sodipodi="http://sodipodi.sourceforge.net/DTD/sodipodi-0.dtd"
   xmlns:inkscape="http://www.inkscape.org/namespaces/inkscape"
   width="500"
   height="500"
   version="1.1"
   id="svg154"
   sodipodi:docname="logo_nova_black.svg"
   inkscape:version="1.0.2-2 (e86c870879, 2021-01-15)">
  <metadata
     id="metadata160">
    <rdf:RDF>
      <cc:Work
         rdf:about="">
        <dc:format>image/svg+xml</dc:format>
        <dc:type
           rdf:resource="http://purl.org/dc/dcmitype/StillImage" />
        <dc:title></dc:title>
      </cc:Work>
    </rdf:RDF>
  </metadata>
  <defs
     id="defs158">
    <linearGradient
       id="linearGradient999"
       osb:paint="solid">
      <stop
         style="stop-color:#ffffff;stop-opacity:1;"
         offset="0"
         id="stop997" />
    </linearGradient>
    <linearGradient
       id="linearGradient993"
       osb:paint="solid">
      <stop
         style="stop-color:#000000;stop-opacity:1;"
         offset="0"
         id="stop991" />
    </linearGradient>
  </defs>
  <sodipodi:namedview
     pagecolor="#ffffff"
     bordercolor="#666666"
     borderopacity="1"
     objecttolerance="10"
     gridtolerance="10"
     guidetolerance="10"
     inkscape:pageopacity="0"
     inkscape:pageshadow="2"
     inkscape:window-width="1920"
     inkscape:window-height="1017"
     id="namedview156"
     showgrid="false"
     inkscape:zoom="1.7"
     inkscape:cx="250"
     inkscape:cy="250"
     inkscape:window-x="760"
     inkscape:window-y="-8"
     inkscape:window-maximized="1"
     inkscape:current-layer="Layer_1"
     inkscape:document-rotation="0" />
  <g
     id="Layer_1"
     transform="matrix(0.81,0,0,0.81,47.5,47.500001)">
    <title
       id="title86">Layer 1</title>
    <g
       stroke="null"
       id="svg_61">
      <g
         stroke="null"
         id="svg_1">
        <title
           stroke="null"
           id="title88">logo-nova-pt</title>
        <path
           stroke="null"
           id="svg_2"
           d="m 139.13288,294.76957 v 12.37492 a 6.71492,6.71492 0 0 0 6.69463,7.10036 h 0.40574 a 6.83664,6.83664 0 0 0 7.10036,-6.69463 v -12.78066 h -2.84015 v 11.56345 a 6.08603,6.08603 0 0 1 -0.81147,3.65162 4.23993,4.23993 0 0 1 -6.08603,0.6086 l -0.6086,-0.6086 a 7.42495,7.42495 0 0 1 -0.81147,-3.65162 v -11.56345 h -3.04301 z" />
        <polygon
           stroke="null"
           id="svg_3"
           points="160.43398,313.83914 163.27414,313.83914 163.27414,300.44989 177.27199,315.05634 177.27199,294.76953 174.43184,294.76953 174.43184,307.95596 160.43398,293.34946 " />
        <rect
           stroke="null"
           id="svg_4"
           x="184.37234"
           y="294.76956"
           width="2.8401501"
           height="19.06955" />
        <polygon
           stroke="null"
           id="svg_5"
           points="192.28418,294.76953 200.60176,315.25928 209.32506,294.76953 206.07916,294.76953 200.80464,307.95596 195.32718,294.76953 " />
        <polygon
           stroke="null"
           id="svg_6"
           points="224.74304,310.99893 217.03406,310.99893 217.03406,304.71011 224.54019,304.71011 224.54019,302.07278 217.03406,302.07278 217.03406,297.40686 224.74304,297.40686 224.74304,294.76953 214.19388,294.76953 214.19388,313.83914 224.74304,313.83914 " />
        <path
           stroke="null"
           id="svg_7"
           d="m 240.56666,303.69574 a 5.70058,5.70058 0 0 0 -0.6086,-7.70897 8.5813,8.5813 0 0 0 -5.47742,-1.42007 h -3.44875 v 19.06955 h 2.84015 v -7.91183 h 0.6086 l 5.47742,7.91183 h 3.44875 l -5.88316,-8.1147 a 4.05735,4.05735 0 0 0 3.04301,-1.82581 m -6.69463,-0.20287 v -6.08603 h 1.01434 c 2.63728,0 4.05735,1.01434 4.05735,2.84015 0,1.82581 -1.42007,3.24588 -4.05735,3.24588 z" />
        <path
           stroke="null"
           id="svg_8"
           d="m 254.15878,311.40471 a 3.26617,3.26617 0 0 1 -2.63728,-1.21721 4.62538,4.62538 0 0 1 -0.6086,-2.23154 l -2.84015,0.6086 a 6.08603,6.08603 0 0 0 2.02868,4.05735 5.0514,5.0514 0 0 0 4.05735,1.42007 6.22803,6.22803 0 0 0 6.28889,-6.28889 5.61943,5.61943 0 0 0 -1.01434,-3.24588 7.83069,7.83069 0 0 0 -3.44875,-2.23154 l -1.82581,-0.81147 c -1.42007,-0.6086 -2.02868,-1.42007 -2.02868,-2.23154 a 1.84609,1.84609 0 0 1 0.81147,-1.62294 2.4547,2.4547 0 0 1 2.02868,-0.6086 3.81391,3.81391 0 0 1 1.62294,0.40574 2.71843,2.71843 0 0 1 1.21721,1.42007 l 2.43441,-1.42007 a 5.84259,5.84259 0 0 0 -5.27456,-3.24588 6.20775,6.20775 0 0 0 -4.05735,1.42007 4.7471,4.7471 0 0 0 -1.62294,3.65162 c 0,2.02868 1.42007,3.65162 3.85448,4.86882 l 1.82581,0.81147 1.21721,0.6086 a 1.58237,1.58237 0 0 1 0.81147,0.81147 1.54179,1.54179 0 0 1 0.40574,0.81147 c 0,0.40574 0.20287,0.6086 0.20287,1.01434 a 3.04301,3.04301 0 0 1 -0.81147,2.23154 4.28051,4.28051 0 0 1 -2.63728,1.01434" />
        <rect
           stroke="null"
           id="svg_9"
           x="266.12796"
           y="294.76956"
           width="2.8401501"
           height="19.06955" />
        <path
           stroke="null"
           id="svg_10"
           d="m 284.79179,295.1753 a 16.89887,16.89887 0 0 0 -4.46309,-0.6086 h -4.05735 v 19.06955 h 4.05735 a 16.89887,16.89887 0 0 0 4.46309,-0.6086 9.85936,9.85936 0 0 0 5.88316,-12.57779 11.50259,11.50259 0 0 0 -2.43441,-3.65162 17.97407,17.97407 0 0 0 -3.44875,-1.62294 m 1.21721,13.99786 a 8.37843,8.37843 0 0 1 -2.23154,1.42007 17.75091,17.75091 0 0 1 -3.24588,0.40574 h -1.21721 v -13.59213 h 1.21721 a 7.42495,7.42495 0 0 1 5.68029,1.82581 7.0395,7.0395 0 0 1 2.02868,5.07169 6.47148,6.47148 0 0 1 -2.23154,4.86882" />
        <path
           stroke="null"
           id="svg_11"
           d="m 296.35524,313.83912 h 3.04301 l 2.23154,-4.66595 h 8.1147 l 2.02868,4.66595 h 3.24588 l -9.12904,-20.28676 -9.53478,20.28676 z m 6.28889,-7.30323 3.04301,-6.49176 2.84015,6.49176 z" />
        <path
           stroke="null"
           id="svg_12"
           d="m 329.62552,295.1753 a 16.89887,16.89887 0 0 0 -4.46309,-0.6086 h -4.05735 v 19.06955 h 4.05735 a 16.89887,16.89887 0 0 0 4.46309,-0.6086 9.85936,9.85936 0 0 0 5.88316,-12.57779 11.50259,11.50259 0 0 0 -2.43441,-3.65162 17.97407,17.97407 0 0 0 -3.44875,-1.62294 m 1.21721,13.99786 a 8.37843,8.37843 0 0 1 -2.23154,1.42007 17.75091,17.75091 0 0 1 -3.24588,0.40574 h -1.21721 v -13.59213 h 1.21721 a 7.42495,7.42495 0 0 1 5.68029,1.82581 7.0395,7.0395 0 0 1 2.02868,5.07169 6.47148,6.47148 0 0 1 -2.23154,4.86882" />
        <polygon
           stroke="null"
           id="svg_13"
           points="353.76672,310.99893 346.0578,310.99893 346.0578,304.71011 353.56387,304.71011 353.56387,302.07278 346.0578,302.07278 346.0578,297.40686 353.76672,297.40686 353.76672,294.76953 343.21765,294.76953 343.21765,313.83914 353.76672,313.83914 " />
        <polygon
           stroke="null"
           id="svg_14"
           points="369.18481,313.83914 372.02487,313.83914 372.02487,300.44989 386.02271,315.05634 386.02271,294.76953 383.18262,294.76953 383.18262,307.95596 369.18481,293.34946 " />
        <path
           stroke="null"
           id="svg_15"
           d="m 402.45497,294.36383 a 9.94051,9.94051 0 0 0 -7.30323,16.83801 l 0.40574,0.40574 a 10.14338,10.14338 0 0 0 13.79499,-0.40574 9.92022,9.92022 0 0 0 0,-13.99786 9.6565,9.6565 0 0 0 -6.8975,-2.84015 m 4.86882,15.0122 a 6.85692,6.85692 0 0 1 -9.94051,0 7.10036,7.10036 0 0 1 -0.20287,-10.14338 7.36409,7.36409 0 0 1 5.27456,-2.23154 6.93807,6.93807 0 0 1 7.10036,7.10036 8.29728,8.29728 0 0 1 -2.23154,5.27456" />
        <polygon
           stroke="null"
           id="svg_16"
           points="415.43842,294.76953 423.95892,315.25928 432.47943,294.76953 429.23352,294.76953 423.95892,307.95596 418.68442,294.76953 " />
        <path
           stroke="null"
           id="svg_17"
           d="m 433.4937,313.83912 h 3.04301 l 2.02868,-4.66595 h 8.1147 l 2.02868,4.66595 h 3.24588 l -9.12904,-20.28676 z m 6.49176,-7.30323 3.04301,-6.49176 2.84015,6.49176 z" />
        <path
           stroke="null"
           id="svg_18"
           d="m 147.85619,327.63411 a 11.15772,11.15772 0 0 0 -4.46309,-0.40574 h -4.05735 v 19.06955 h 4.05735 a 16.89887,16.89887 0 0 0 4.46309,-0.6086 9.71736,9.71736 0 0 0 5.88316,-12.37492 15.43822,15.43822 0 0 0 -2.43441,-3.85448 14.20073,14.20073 0 0 0 -3.44875,-1.82581 m 1.21721,13.99786 a 7.01922,7.01922 0 0 1 -2.43441,1.42007 17.75091,17.75091 0 0 1 -3.24588,0.40574 h -1.21721 v -13.79499 h 1.21721 a 7.42495,7.42495 0 0 1 5.68029,1.82581 7.0395,7.0395 0 0 1 2.02868,5.07169 7.2018,7.2018 0 0 1 -2.02868,5.07169" />
        <polygon
           stroke="null"
           id="svg_19"
           points="170.78023,343.45776 163.07126,343.45776 163.07126,337.16895 170.3745,337.16895 170.3745,334.3287 163.07126,334.3287 163.07126,329.86572 170.78023,329.86572 170.78023,327.02554 160.23116,327.02554 160.23116,346.29797 170.78023,346.29797 " />
        <polygon
           stroke="null"
           id="svg_20"
           points="187.41539,346.29797 195.93578,346.29797 195.93578,343.45776 190.25551,343.45776 190.25551,327.02554 187.41539,327.02554 " />
        <rect
           stroke="null"
           id="svg_21"
           x="201.21034"
           y="327.02551"
           width="2.8401501"
           height="19.06955" />
        <path
           stroke="null"
           id="svg_22"
           d="m 218.04836,334.93735 -1.82581,-0.81147 c -1.42007,-0.6086 -2.02868,-1.42007 -2.02868,-2.23154 a 1.84609,1.84609 0 0 1 0.81147,-1.62294 3.38789,3.38789 0 0 1 3.65162,-0.20287 2.71843,2.71843 0 0 1 1.21721,1.42007 l 2.43441,-1.42007 a 5.84259,5.84259 0 0 0 -5.27456,-3.24588 6.20775,6.20775 0 0 0 -4.05735,1.42007 4.7471,4.7471 0 0 0 -1.62294,3.65162 5.43685,5.43685 0 0 0 3.85448,4.86882 l 1.82581,0.81147 1.21721,0.6086 a 1.58237,1.58237 0 0 1 0.81147,0.81147 1.54179,1.54179 0 0 1 0.40574,0.81147 c 0,0.40574 0.20287,0.6086 0.20287,1.01434 a 3.04301,3.04301 0 0 1 -0.81147,2.23154 2.41412,2.41412 0 0 1 -2.23154,0.81147 3.26617,3.26617 0 0 1 -2.63728,-1.21721 4.82825,4.82825 0 0 1 -0.6086,-2.43441 l -2.84015,0.6086 a 6.08603,6.08603 0 0 0 2.02868,4.05735 5.0514,5.0514 0 0 0 4.05735,1.42007 6.28889,6.28889 0 0 0 4.46309,-1.82581 5.96431,5.96431 0 0 0 1.82581,-4.46309 5.61943,5.61943 0 0 0 -1.01434,-3.24588 9.63621,9.63621 0 0 0 -3.85448,-1.82581" />
        <path
           stroke="null"
           id="svg_23"
           d="m 236.71218,335.95168 a 4.64567,4.64567 0 0 0 1.62294,-3.44875 5.11226,5.11226 0 0 0 -1.82581,-4.05735 6.34975,6.34975 0 0 0 -2.02868,-1.01434 7.72925,7.72925 0 0 0 -3.04301,-0.20287 h -2.84015 v 19.06955 h 4.46309 a 8.92617,8.92617 0 0 0 3.24588,-0.40574 6.75549,6.75549 0 0 0 2.02868,-1.21721 5.53828,5.53828 0 0 0 1.62294,-3.85448 5.72087,5.72087 0 0 0 -0.81147,-3.04301 9.53478,9.53478 0 0 0 -2.43441,-1.82581 m -5.47742,-6.08603 h 1.01434 a 4.05735,4.05735 0 0 1 2.23154,0.6086 2.94158,2.94158 0 0 1 0,4.05735 3.22559,3.22559 0 0 1 -2.43441,0.81147 h -0.81147 z m 4.66595,12.98352 a 4.66595,4.66595 0 0 1 -2.84015,0.81147 h -1.82581 v -5.88316 h 1.62294 a 4.62538,4.62538 0 0 1 3.24588,0.81147 2.81986,2.81986 0 0 1 1.01434,2.02868 3.5299,3.5299 0 0 1 -1.21721,2.23154" />
        <path
           stroke="null"
           id="svg_24"
           d="m 255.17312,326.82264 a 10.14338,10.14338 0 0 0 -7.10036,2.84015 9.85936,9.85936 0 0 0 -3.04301,6.8975 9.1899,9.1899 0 0 0 3.24588,7.5061 10.2651,10.2651 0 0 0 13.79499,-0.20287 9.51449,9.51449 0 0 0 3.04301,-7.10036 9.9608,9.9608 0 0 0 -9.94051,-9.94051 m 4.86882,15.0122 a 7.0395,7.0395 0 0 1 -5.07169,2.02868 7.30323,7.30323 0 1 1 0,-14.60646 7.0395,7.0395 0 0 1 5.07169,2.02868 7.58725,7.58725 0 0 1 0,10.54911" />
        <path
           stroke="null"
           id="svg_25"
           d="m 268.96812,346.29793 h 3.04301 l 2.02868,-4.66595 h 8.1147 l 2.02868,4.66595 h 3.44875 l -9.12904,-20.28676 z m 6.49176,-7.30323 3.04301,-6.49176 2.84015,6.49176 z" />
        <path
           stroke="null"
           id="svg_26"
           d="m 222.71431,198.81322 a 55.32198,55.32198 0 0 0 23.93837,-45.0366 h -26.16991 a 28.78691,28.78691 0 0 1 -29.01006,28.60433 28.40146,28.40146 0 0 1 -23.53264,-12.57779 28.40146,28.40146 0 0 1 -5.07169,-16.02654 h -26.16991 a 55.01768,55.01768 0 0 0 55.17998,54.77424 54.46994,54.46994 0 0 0 30.83587,-9.73764" />
        <path
           stroke="null"
           id="svg_27"
           d="m 348.08646,265.75951 h 32.45881 l 29.61866,-75.87247 29.4158,75.87247 h 33.27028 Q 449.11451,209.46376 425.379,153.37088 h -29.82153 c -14.60646,34.69035 -29.4158,69.3807 -44.02226,104.07106 l -3.44875,8.31757" />
        <path
           stroke="null"
           id="svg_28"
           d="m 368.77895,161.89132 3.44875,-8.31757 h -32.45881 l -29.61866,75.87247 -29.4158,-75.87247 h -33.27028 c 15.82367,37.5305 31.64734,74.85813 47.47101,112.38863 h 29.82153 q 22.31543,-52.03553 44.02226,-104.07106" />
        <polygon
           stroke="null"
           id="svg_29"
           points="27.149994,153.97951 27.149994,266.16525 51.49411,266.16525 51.49411,194.75586 105.86261,266.16525 126.75798,266.16525 126.75798,153.97951 102.41388,153.97951 102.41388,222.95441 49.871162,153.97951 " />
        <path
           stroke="null"
           id="svg_30"
           class="cls-1"
           d="m 162.66552,265.96238 a 28.92891,28.92891 0 0 1 57.81725,0 h 26.16991 a 54.99739,54.99739 0 0 0 -109.95421,0 z"
           fill="#338141" />
      </g>
      <g
         stroke="null"
         id="svg_31">
        <title
           stroke="null"
           id="title120">logo-nova-pt</title>
        <path
           stroke="null"
           id="svg_32"
           d="m 139.13288,294.76957 v 12.37492 a 6.71492,6.71492 0 0 0 6.69463,7.10036 h 0.40574 a 6.83664,6.83664 0 0 0 7.10036,-6.69463 v -12.78066 h -2.84015 v 11.56345 a 6.08603,6.08603 0 0 1 -0.81147,3.65162 4.23993,4.23993 0 0 1 -6.08603,0.6086 l -0.6086,-0.6086 a 7.42495,7.42495 0 0 1 -0.81147,-3.65162 v -11.56345 h -3.04301 z"
           style="fill:#000000;stroke:none;fill-opacity:1" />
        <polygon
           stroke="null"
           id="svg_33"
           points="160.43398,313.83914 163.27414,313.83914 163.27414,300.44989 177.27199,315.05634 177.27199,294.76953 174.43184,294.76953 174.43184,307.95596 160.43398,293.34946 "
           style="fill:#000000;stroke:none;fill-opacity:1" />
        <rect
           stroke="null"
           id="svg_34"
           x="184.37234"
           y="294.76956"
           width="2.8401501"
           height="19.06955"
           style="fill:#000000;stroke:none;fill-opacity:1" />
        <polygon
           stroke="null"
           id="svg_35"
           points="192.28418,294.76953 200.60176,315.25928 209.32506,294.76953 206.07916,294.76953 200.80464,307.95596 195.32718,294.76953 "
           style="fill:#000000;stroke:none;fill-opacity:1" />
        <polygon
           stroke="null"
           id="svg_36"
           points="224.74304,310.99893 217.03406,310.99893 217.03406,304.71011 224.54019,304.71011 224.54019,302.07278 217.03406,302.07278 217.03406,297.40686 224.74304,297.40686 224.74304,294.76953 214.19388,294.76953 214.19388,313.83914 224.74304,313.83914 "
           style="fill:#000000;stroke:none;fill-opacity:1" />
        <path
           stroke="null"
           id="svg_37"
           d="m 240.56666,303.69574 a 5.70058,5.70058 0 0 0 -0.6086,-7.70897 8.5813,8.5813 0 0 0 -5.47742,-1.42007 h -3.44875 v 19.06955 h 2.84015 v -7.91183 h 0.6086 l 5.47742,7.91183 h 3.44875 l -5.88316,-8.1147 a 4.05735,4.05735 0 0 0 3.04301,-1.82581 m -6.69463,-0.20287 v -6.08603 h 1.01434 c 2.63728,0 4.05735,1.01434 4.05735,2.84015 0,1.82581 -1.42007,3.24588 -4.05735,3.24588 z"
           style="fill:#000000;stroke:none;fill-opacity:1" />
        <path
           stroke="null"
           id="svg_38"
           d="m 254.15878,311.40471 a 3.26617,3.26617 0 0 1 -2.63728,-1.21721 4.62538,4.62538 0 0 1 -0.6086,-2.23154 l -2.84015,0.6086 a 6.08603,6.08603 0 0 0 2.02868,4.05735 5.0514,5.0514 0 0 0 4.05735,1.42007 6.22803,6.22803 0 0 0 6.28889,-6.28889 5.61943,5.61943 0 0 0 -1.01434,-3.24588 7.83069,7.83069 0 0 0 -3.44875,-2.23154 l -1.82581,-0.81147 c -1.42007,-0.6086 -2.02868,-1.42007 -2.02868,-2.23154 a 1.84609,1.84609 0 0 1 0.81147,-1.62294 2.4547,2.4547 0 0 1 2.02868,-0.6086 3.81391,3.81391 0 0 1 1.62294,0.40574 2.71843,2.71843 0 0 1 1.21721,1.42007 l 2.43441,-1.42007 a 5.84259,5.84259 0 0 0 -5.27456,-3.24588 6.20775,6.20775 0 0 0 -4.05735,1.42007 4.7471,4.7471 0 0 0 -1.62294,3.65162 c 0,2.02868 1.42007,3.65162 3.85448,4.86882 l 1.82581,0.81147 1.21721,0.6086 a 1.58237,1.58237 0 0 1 0.81147,0.81147 1.54179,1.54179 0 0 1 0.40574,0.81147 c 0,0.40574 0.20287,0.6086 0.20287,1.01434 a 3.04301,3.04301 0 0 1 -0.81147,2.23154 4.28051,4.28051 0 0 1 -2.63728,1.01434"
           style="fill:#000000;stroke:none;fill-opacity:1" />
        <rect
           stroke="null"
           id="svg_39"
           x="266.12796"
           y="294.76956"
           width="2.8401501"
           height="19.06955"
           style="fill:#000000;stroke:none;fill-opacity:1" />
        <path
           stroke="null"
           id="svg_40"
           d="m 284.79179,295.1753 a 16.89887,16.89887 0 0 0 -4.46309,-0.6086 h -4.05735 v 19.06955 h 4.05735 a 16.89887,16.89887 0 0 0 4.46309,-0.6086 9.85936,9.85936 0 0 0 5.88316,-12.57779 11.50259,11.50259 0 0 0 -2.43441,-3.65162 17.97407,17.97407 0 0 0 -3.44875,-1.62294 m 1.21721,13.99786 a 8.37843,8.37843 0 0 1 -2.23154,1.42007 17.75091,17.75091 0 0 1 -3.24588,0.40574 h -1.21721 v -13.59213 h 1.21721 a 7.42495,7.42495 0 0 1 5.68029,1.82581 7.0395,7.0395 0 0 1 2.02868,5.07169 6.47148,6.47148 0 0 1 -2.23154,4.86882"
           style="fill:#000000;stroke:none;fill-opacity:1" />
        <path
           stroke="null"
           id="svg_41"
           d="m 296.35524,313.83912 h 3.04301 l 2.23154,-4.66595 h 8.1147 l 2.02868,4.66595 h 3.24588 l -9.12904,-20.28676 -9.53478,20.28676 z m 6.28889,-7.30323 3.04301,-6.49176 2.84015,6.49176 z"
           style="fill:#000000;stroke:none;fill-opacity:1" />
        <path
           stroke="null"
           id="svg_42"
           d="m 329.62552,295.1753 a 16.89887,16.89887 0 0 0 -4.46309,-0.6086 h -4.05735 v 19.06955 h 4.05735 a 16.89887,16.89887 0 0 0 4.46309,-0.6086 9.85936,9.85936 0 0 0 5.88316,-12.57779 11.50259,11.50259 0 0 0 -2.43441,-3.65162 17.97407,17.97407 0 0 0 -3.44875,-1.62294 m 1.21721,13.99786 a 8.37843,8.37843 0 0 1 -2.23154,1.42007 17.75091,17.75091 0 0 1 -3.24588,0.40574 h -1.21721 v -13.59213 h 1.21721 a 7.42495,7.42495 0 0 1 5.68029,1.82581 7.0395,7.0395 0 0 1 2.02868,5.07169 6.47148,6.47148 0 0 1 -2.23154,4.86882"
           style="fill:#000000;stroke:none;fill-opacity:1" />
        <polygon
           stroke="null"
           id="svg_43"
           points="353.76672,310.99893 346.0578,310.99893 346.0578,304.71011 353.56387,304.71011 353.56387,302.07278 346.0578,302.07278 346.0578,297.40686 353.76672,297.40686 353.76672,294.76953 343.21765,294.76953 343.21765,313.83914 353.76672,313.83914 "
           style="fill:#000000;stroke:none;fill-opacity:1" />
        <polygon
           stroke="null"
           id="svg_44"
           points="369.18481,313.83914 372.02487,313.83914 372.02487,300.44989 386.02271,315.05634 386.02271,294.76953 383.18262,294.76953 383.18262,307.95596 369.18481,293.34946 "
           style="fill:#000000;stroke:none;fill-opacity:1" />
        <path
           stroke="null"
           id="svg_45"
           d="m 402.45497,294.36383 a 9.94051,9.94051 0 0 0 -7.30323,16.83801 l 0.40574,0.40574 a 10.14338,10.14338 0 0 0 13.79499,-0.40574 9.92022,9.92022 0 0 0 0,-13.99786 9.6565,9.6565 0 0 0 -6.8975,-2.84015 m 4.86882,15.0122 a 6.85692,6.85692 0 0 1 -9.94051,0 7.10036,7.10036 0 0 1 -0.20287,-10.14338 7.36409,7.36409 0 0 1 5.27456,-2.23154 6.93807,6.93807 0 0 1 7.10036,7.10036 8.29728,8.29728 0 0 1 -2.23154,5.27456"
           style="fill:#000000;stroke:none;fill-opacity:1" />
        <polygon
           stroke="null"
           id="svg_46"
           points="415.43842,294.76953 423.95892,315.25928 432.47943,294.76953 429.23352,294.76953 423.95892,307.95596 418.68442,294.76953 "
           style="fill:#000000;stroke:none;fill-opacity:1" />
        <path
           stroke="null"
           id="svg_47"
           d="m 433.4937,313.83912 h 3.04301 l 2.02868,-4.66595 h 8.1147 l 2.02868,4.66595 h 3.24588 l -9.12904,-20.28676 z m 6.49176,-7.30323 3.04301,-6.49176 2.84015,6.49176 z"
           style="fill:#000000;stroke:none;fill-opacity:1" />
        <path
           stroke="null"
           id="svg_48"
           d="m 147.85619,327.63411 a 11.15772,11.15772 0 0 0 -4.46309,-0.40574 h -4.05735 v 19.06955 h 4.05735 a 16.89887,16.89887 0 0 0 4.46309,-0.6086 9.71736,9.71736 0 0 0 5.88316,-12.37492 15.43822,15.43822 0 0 0 -2.43441,-3.85448 14.20073,14.20073 0 0 0 -3.44875,-1.82581 m 1.21721,13.99786 a 7.01922,7.01922 0 0 1 -2.43441,1.42007 17.75091,17.75091 0 0 1 -3.24588,0.40574 h -1.21721 v -13.79499 h 1.21721 a 7.42495,7.42495 0 0 1 5.68029,1.82581 7.0395,7.0395 0 0 1 2.02868,5.07169 7.2018,7.2018 0 0 1 -2.02868,5.07169"
           style="fill:#000000;stroke:none;fill-opacity:1" />
        <polygon
           stroke="null"
           id="svg_49"
           points="170.78023,343.45776 163.07126,343.45776 163.07126,337.16895 170.3745,337.16895 170.3745,334.3287 163.07126,334.3287 163.07126,329.86572 170.78023,329.86572 170.78023,327.02554 160.23116,327.02554 160.23116,346.29797 170.78023,346.29797 "
           style="fill:#000000;stroke:none;fill-opacity:1" />
        <polygon
           stroke="null"
           id="svg_50"
           points="187.41539,346.29797 195.93578,346.29797 195.93578,343.45776 190.25551,343.45776 190.25551,327.02554 187.41539,327.02554 "
           style="fill:#000000;stroke:none;fill-opacity:1" />
        <rect
           stroke="null"
           id="svg_51"
           x="201.21034"
           y="327.02551"
           width="2.8401501"
           height="19.06955"
           style="fill:#000000;stroke:none;fill-opacity:1" />
        <path
           stroke="null"
           id="svg_52"
           d="m 218.04836,334.93735 -1.82581,-0.81147 c -1.42007,-0.6086 -2.02868,-1.42007 -2.02868,-2.23154 a 1.84609,1.84609 0 0 1 0.81147,-1.62294 3.38789,3.38789 0 0 1 3.65162,-0.20287 2.71843,2.71843 0 0 1 1.21721,1.42007 l 2.43441,-1.42007 a 5.84259,5.84259 0 0 0 -5.27456,-3.24588 6.20775,6.20775 0 0 0 -4.05735,1.42007 4.7471,4.7471 0 0 0 -1.62294,3.65162 5.43685,5.43685 0 0 0 3.85448,4.86882 l 1.82581,0.81147 1.21721,0.6086 a 1.58237,1.58237 0 0 1 0.81147,0.81147 1.54179,1.54179 0 0 1 0.40574,0.81147 c 0,0.40574 0.20287,0.6086 0.20287,1.01434 a 3.04301,3.04301 0 0 1 -0.81147,2.23154 2.41412,2.41412 0 0 1 -2.23154,0.81147 3.26617,3.26617 0 0 1 -2.63728,-1.21721 4.82825,4.82825 0 0 1 -0.6086,-2.43441 l -2.84015,0.6086 a 6.08603,6.08603 0 0 0 2.02868,4.05735 5.0514,5.0514 0 0 0 4.05735,1.42007 6.28889,6.28889 0 0 0 4.46309,-1.82581 5.96431,5.96431 0 0 0 1.82581,-4.46309 5.61943,5.61943 0 0 0 -1.01434,-3.24588 9.63621,9.63621 0 0 0 -3.85448,-1.82581"
           style="fill:#000000;stroke:none;fill-opacity:1" />
        <path
           stroke="null"
           id="svg_53"
           d="m 236.71218,335.95168 a 4.64567,4.64567 0 0 0 1.62294,-3.44875 5.11226,5.11226 0 0 0 -1.82581,-4.05735 6.34975,6.34975 0 0 0 -2.02868,-1.01434 7.72925,7.72925 0 0 0 -3.04301,-0.20287 h -2.84015 v 19.06955 h 4.46309 a 8.92617,8.92617 0 0 0 3.24588,-0.40574 6.75549,6.75549 0 0 0 2.02868,-1.21721 5.53828,5.53828 0 0 0 1.62294,-3.85448 5.72087,5.72087 0 0 0 -0.81147,-3.04301 9.53478,9.53478 0 0 0 -2.43441,-1.82581 m -5.47742,-6.08603 h 1.01434 a 4.05735,4.05735 0 0 1 2.23154,0.6086 2.94158,2.94158 0 0 1 0,4.05735 3.22559,3.22559 0 0 1 -2.43441,0.81147 h -0.81147 z m 4.66595,12.98352 a 4.66595,4.66595 0 0 1 -2.84015,0.81147 h -1.82581 v -5.88316 h 1.62294 a 4.62538,4.62538 0 0 1 3.24588,0.81147 2.81986,2.81986 0 0 1 1.01434,2.02868 3.5299,3.5299 0 0 1 -1.21721,2.23154"
           style="fill:#000000;stroke:none;fill-opacity:1" />
        <path
           stroke="null"
           id="svg_54"
           d="m 255.17312,326.82264 a 10.14338,10.14338 0 0 0 -7.10036,2.84015 9.85936,9.85936 0 0 0 -3.04301,6.8975 9.1899,9.1899 0 0 0 3.24588,7.5061 10.2651,10.2651 0 0 0 13.79499,-0.20287 9.51449,9.51449 0 0 0 3.04301,-7.10036 9.9608,9.9608 0 0 0 -9.94051,-9.94051 m 4.86882,15.0122 a 7.0395,7.0395 0 0 1 -5.07169,2.02868 7.30323,7.30323 0 1 1 0,-14.60646 7.0395,7.0395 0 0 1 5.07169,2.02868 7.58725,7.58725 0 0 1 0,10.54911"
           style="fill:#000000;stroke:none;fill-opacity:1" />
        <path
           stroke="null"
           id="svg_55"
           d="m 268.96812,346.29793 h 3.04301 l 2.02868,-4.66595 h 8.1147 l 2.02868,4.66595 h 3.44875 l -9.12904,-20.28676 z m 6.49176,-7.30323 3.04301,-6.49176 2.84015,6.49176 z"
           style="fill:#000000;stroke:none;fill-opacity:1" />
        <path
           stroke="null"
           id="svg_56"
           d="m 222.71431,198.81322 a 55.32198,55.32198 0 0 0 23.93837,-45.0366 h -26.16991 a 28.78691,28.78691 0 0 1 -29.01006,28.60433 28.40146,28.40146 0 0 1 -23.53264,-12.57779 28.40146,28.40146 0 0 1 -5.07169,-16.02654 h -26.16991 a 55.01768,55.01768 0 0 0 55.17998,54.77424 54.46994,54.46994 0 0 0 30.83587,-9.73764" />
        <path
           stroke="null"
           id="svg_57"
           d="m 348.08646,265.75951 h 32.45881 l 29.61866,-75.87247 29.4158,75.87247 h 33.27028 Q 449.11451,209.46376 425.379,153.37088 h -29.82153 c -14.60646,34.69035 -29.4158,69.3807 -44.02226,104.07106 l -3.44875,8.31757"
           style="fill:#000000;fill-opacity:1;stroke:none;stroke-opacity:1" />
        <path
           stroke="null"
           id="svg_58"
           d="m 368.77895,161.89132 3.44875,-8.31757 h -32.45881 l -29.61866,75.87247 -29.4158,-75.87247 h -33.27028 c 15.82367,37.5305 31.64734,74.85813 47.47101,112.38863 h 29.82153 q 22.31543,-52.03553 44.02226,-104.07106" />
        <polygon
           stroke="null"
           id="svg_59"
           points="27.149994,153.97951 27.149994,266.16525 51.49411,266.16525 51.49411,194.75586 105.86261,266.16525 126.75798,266.16525 126.75798,153.97951 102.41388,153.97951 102.41388,222.95441 49.871162,153.97951 "
           style="fill:#000000;stroke:none;fill-opacity:1" />
        <path
           stroke="null"
           id="svg_60"
           class="cls-1"
           d="m 162.66552,265.96238 a 28.92891,28.92891 0 0 1 57.81725,0 h 26.16991 a 54.99739,54.99739 0 0 0 -109.95421,0 z"
           fill="#338141" />
      </g>
    </g>
  </g>
  <path
     style="fill:#000000;stroke:none;stroke-width:0;stroke-miterlimit:4;stroke-dasharray:none;fill-opacity:1"
     d="m 195.60176,215.68309 c -8.91347,-1.50415 -17.00459,-5.63595 -23.66903,-12.0868 -7.6606,-7.41507 -12.45786,-17.38587 -13.26399,-27.56835 l -0.29233,-3.69264 H 168.8632 179.35 l 0.26655,2.93962 c 0.40355,4.45034 3.32368,9.99381 7.14095,13.55614 4.86228,4.53755 9.42819,6.34162 16.10455,6.36317 10.5072,0.0339 19.61654,-6.88206 22.43038,-17.02957 0.48622,-1.75348 0.88405,-3.78243 0.88405,-4.50876 v -1.3206 h 10.48234 10.48236 v 1.36699 c 0,0.75185 -0.32166,3.21153 -0.7148,5.46594 -3.75827,21.55147 -22.28642,37.16521 -43.8352,36.94006 -2.6206,-0.0274 -5.76583,-0.21872 -6.98942,-0.4252 z"
     id="path162" />
  <path
     style="fill:#000000;stroke:none;stroke-width:0.0952938;stroke-opacity:1;fill-opacity:1"
     d="m 267.3224,217.46762 -19.12759,-45.37056 13.13884,-0.12681 c 9.38709,-0.0906 13.23399,0.0272 13.47207,0.41236 0.18328,0.29655 5.53121,13.96876 11.88432,30.38269 6.35309,16.41394 11.69784,30.00602 11.8772,30.20461 0.17936,0.1986 5.70072,-13.41655 12.26968,-30.25588 l 11.94357,-30.61697 12.95902,-0.12683 12.95903,-0.12684 -0.32754,1.03194 c -0.4296,1.35354 -19.82288,47.47531 -29.97515,71.28791 l -7.97318,18.70147 -11.98633,-0.0133 -11.98634,-0.0132 z"
     id="path164" />
</svg>
