<?xml version="1.0" encoding="UTF-8" standalone="no"?>
<svg
   xmlns:dc="http://purl.org/dc/elements/1.1/"
   xmlns:cc="http://creativecommons.org/ns#"
   xmlns:rdf="http://www.w3.org/1999/02/22-rdf-syntax-ns#"
   xmlns:svg="http://www.w3.org/2000/svg"
   xmlns="http://www.w3.org/2000/svg"
   xmlns:sodipodi="http://sodipodi.sourceforge.net/DTD/sodipodi-0.dtd"
   xmlns:inkscape="http://www.inkscape.org/namespaces/inkscape"
   width="500"
   height="500"
   version="1.1"
   id="svg1133"
   sodipodi:docname="logo_cml_white.svg"
   inkscape:version="1.0.2-2 (e86c870879, 2021-01-15)">
  <metadata
     id="metadata1139">
    <rdf:RDF>
      <cc:Work
         rdf:about="">
        <dc:format>image/svg+xml</dc:format>
        <dc:type
           rdf:resource="http://purl.org/dc/dcmitype/StillImage" />
        <dc:title></dc:title>
      </cc:Work>
    </rdf:RDF>
  </metadata>
  <defs
     id="defs1137" />
  <sodipodi:namedview
     pagecolor="#ffffff"
     bordercolor="#666666"
     borderopacity="1"
     objecttolerance="10"
     gridtolerance="10"
     guidetolerance="10"
     inkscape:pageopacity="0"
     inkscape:pageshadow="2"
     inkscape:window-width="1920"
     inkscape:window-height="1017"
     id="namedview1135"
     showgrid="false"
     inkscape:zoom="1.7"
     inkscape:cx="250"
     inkscape:cy="250"
     inkscape:window-x="760"
     inkscape:window-y="-8"
     inkscape:window-maximized="1"
     inkscape:current-layer="svg1133"
     inkscape:document-rotation="0" />
  <g
     id="Layer_1"
     style="fill:#ffffff"
     transform="matrix(0.81,0,0,0.81,47.499998,47.500009)">
    <title
       id="title1072">Layer 1</title>
    <g
       stroke="null"
       id="g1130"
       style="fill:#ffffff">
      <g
         stroke="null"
         fill="#000000"
         transform="matrix(0.1,0,0,-0.1,0,1500)"
         id="g1128"
         style="fill:#ffffff">
        <path
           stroke="null"
           d="m 2221.3284,14712.228 -10.0293,-8.597 -1.7909,-94.562 c -2.1492,-113.904 -1.0746,-130.381 10.3874,-139.336 7.8802,-6.447 16.835,-6.805 165.4836,-6.805 152.5888,0 157.6034,0.358 164.409,7.163 10.7457,10.746 8.9548,22.566 -4.6564,34.387 -6.0893,5.731 -33.6699,27.222 -60.5341,47.639 -27.2224,20.417 -48.3556,38.326 -47.6392,40.117 1.0746,1.433 23.2823,19.342 49.4302,39.401 74.5034,57.668 80.2344,65.19 63.3995,82.025 -6.8056,6.806 -11.8202,7.164 -162.618,7.164 h -155.8125 z"
           id="path1074"
           style="fill:#ffffff" />
        <path
           stroke="null"
           d="m 1914.0018,14393.081 c -8.5966,-8.239 -8.9547,-10.746 -8.9547,-51.938 0,-43.341 2.5073,-54.445 13.9693,-63.399 4.2983,-3.224 50.1466,-4.299 187.6914,-4.657 h 181.6021 v -11.462 c 0,-6.447 -3.2237,-56.952 -7.522,-112.113 -3.9401,-55.161 -18.2677,-252.166 -31.5207,-437.708 -13.253,-185.542 -25.0733,-338.847 -26.506,-340.28 -8.2384,-7.88 -99.2185,35.103 -141.8431,67.34 -46.5646,35.102 -96.353,93.129 -117.128,136.828 l -6.4474,13.253 h -165.4835 c -157.2453,0 -165.8418,-0.358 -173.722,-6.805 -8.2383,-6.448 -8.5965,-9.672 -10.3875,-59.818 -1.7909,-55.519 0.3582,-69.131 12.8948,-75.22 3.9401,-1.791 28.297,-3.94 54.803,-5.015 l 47.9974,-1.79 10.0293,-29.73 c 42.6246,-127.158 133.2466,-243.927 248.5836,-321.296 195.2133,-130.739 437.7076,-144.351 649.7558,-35.819 95.2784,48.714 175.8711,121.068 237.4797,212.764 28.297,42.267 58.3849,102.801 73.0707,146.5 l 9.6711,29.371 h 40.8336 c 67.6978,0 72.7125,5.015 72.7125,74.146 0,43.699 -4.6565,61.966 -17.5513,68.772 -5.0147,2.866 -56.9522,3.582 -167.2745,3.224 -155.8125,-1.075 -160.1108,-1.433 -164.0508,-8.239 -44.0574,-80.592 -109.606,-145.425 -186.6168,-183.751 -25.0733,-12.178 -76.2944,-31.162 -78.8017,-28.655 -1.4328,1.075 -43.3409,595.311 -61.6086,870.759 l -2.1491,34.744 h 181.2439 c 99.5767,0 183.7512,1.075 186.9749,2.149 12.1785,4.657 16.1185,21.134 16.1185,65.907 0,41.192 -0.3581,43.699 -8.9547,51.938 l -8.5965,8.954 h -415.8581 -415.8581 z"
           id="path1076"
           style="fill:#ffffff" />
        <path
           stroke="null"
           d="m 1882.4811,14158.825 c -13.253,-3.582 -31.1625,-11.104 -40.1172,-17.552 -8.5966,-6.089 -137.903,-124.291 -287.268,-262.911 -149.3651,-138.619 -284.0443,-262.911 -299.0883,-276.88 -27.9388,-25.79 -34.7444,-36.894 -29.3715,-48.356 3.94,-7.88 153.3051,-131.097 161.9016,-133.246 16.8349,-4.657 20.0586,1.432 65.9069,108.889 l 44.7737,104.95 58.7431,3.94 c 108.1732,7.522 180.1693,21.133 268.2839,50.505 59.8177,20.058 89.5474,42.266 107.0987,79.518 8.9548,18.984 9.3129,22.566 8.9548,75.578 -0.3582,43.699 -1.791,61.25 -7.8802,82.383 -3.9401,14.686 -6.4474,27.939 -5.731,29.014 0.7163,1.074 47.9974,1.432 104.9495,0.358 93.8457,-1.433 104.9495,-1.075 113.1879,4.298 18.6259,12.179 13.253,20.775 -60.8922,97.428 -75.578,78.801 -96.353,94.562 -134.3211,103.158 -30.4461,7.164 -38.6845,6.806 -69.1306,-1.074 z"
           id="path1078"
           style="fill:#ffffff" />
        <path
           stroke="null"
           d="m 2694.1386,14160.616 c -29.0133,-9.313 -46.2064,-23.641 -119.9935,-97.786 -78.0853,-78.802 -82.7418,-85.607 -68.056,-98.86 5.731,-5.373 19.3422,-6.09 114.9788,-6.09 101.3677,0 108.1733,-0.358 106.3823,-6.089 -10.7457,-35.102 -14.3275,-60.892 -14.3275,-108.531 -0.3582,-48.714 0.3581,-53.012 8.9547,-71.996 18.984,-40.476 45.8483,-60.176 110.6806,-82.026 89.5474,-29.729 196.646,-48.355 292.999,-51.221 l 30.0879,-0.716 43.341,-102.442 c 23.9987,-56.236 45.8482,-104.95 48.7137,-108.532 8.5966,-10.387 20.4168,-6.447 47.6392,15.402 113.1879,91.697 133.6047,109.964 134.6793,120.71 1.0746,10.388 -9.6711,20.775 -161.1853,161.544 -89.1892,82.741 -226.734,210.257 -305.5357,283.686 -165.8417,154.021 -167.6327,155.096 -221.7193,156.887 -20.4168,0.716 -38.3263,-0.717 -47.6392,-3.94 z"
           id="path1080"
           style="fill:#ffffff" />
        <path
           stroke="null"
           d="m 1777.1734,12926.653 c -20.0586,-9.313 -29.7298,-25.432 -29.7298,-48.714 0,-24.357 10.7457,-41.55 40.4755,-66.623 93.8456,-78.802 229.9577,-88.473 332.0417,-23.999 15.7603,10.029 28.6551,15.044 39.4008,16.118 14.3276,1.433 18.9841,-0.358 44.7737,-16.476 43.3409,-27.581 90.9801,-42.983 133.6047,-43.341 44.4155,0 101.7258,18.984 143.9922,47.997 17.5513,12.179 21.4914,13.611 37.6099,12.179 13.253,-1.433 23.6405,-5.373 40.8336,-16.477 43.6991,-28.297 89.9056,-41.55 147.2159,-41.55 47.6392,0 81.6672,7.88 123.2172,28.655 31.5207,15.76 41.9082,23.282 68.056,47.998 25.4315,23.998 30.8043,34.028 30.8043,56.235 0,23.283 -10.0293,39.043 -31.1625,48.356 -21.1331,9.313 -39.759,7.164 -56.9521,-6.806 -48.7138,-39.042 -77.0108,-52.654 -123.9336,-59.101 -53.7284,-7.522 -111.3969,10.746 -157.9616,50.863 -33.3116,28.655 -54.803,28.297 -87.7564,-0.716 -41.55,-36.536 -82.3836,-53.013 -131.0974,-53.013 -47.9974,0 -89.1892,15.761 -121.7844,46.565 -39.0427,36.177 -63.7578,37.968 -97.7858,6.806 -23.6405,-21.85 -46.5646,-34.745 -79.1598,-45.132 -26.1479,-8.239 -34.0281,-8.955 -66.2651,-7.522 -54.4448,2.865 -83.8164,15.76 -141.1267,62.325 -15.7603,12.536 -37.6099,14.686 -57.3103,5.373 z"
           id="path1082"
           style="fill:#ffffff" />
        <path
           stroke="null"
           d="m 1801.1721,11648.991 c -5.0147,-0.717 -20.0586,-3.224 -34.028,-5.373 -103.1586,-16.477 -182.3185,-84.891 -205.959,-177.304 -8.5966,-33.67 -9.6711,-95.278 -1.791,-131.097 12.8948,-61.967 50.8629,-109.248 109.9642,-136.829 41.55,-19.7 61.2504,-24.357 153.3051,-37.61 40.4755,-6.089 81.3091,-13.611 90.9802,-16.835 38.6844,-13.253 62.6831,-53.37 58.3849,-98.144 -6.4474,-70.563 -74.5034,-104.591 -186.6168,-93.129 -59.8176,6.089 -113.9042,26.506 -147.9322,55.52 l -14.3276,12.178 -51.2211,-51.579 -51.5793,-51.58 8.5965,-9.671 c 27.2224,-29.013 83.4582,-63.041 129.3065,-77.727 56.5939,-18.626 141.4848,-26.864 207.3917,-20.417 173.7219,17.552 275.0896,122.859 263.2693,273.299 -8.2384,107.815 -61.9668,176.229 -159.3943,202.735 -14.6858,4.299 -60.1759,12.179 -101.0095,18.268 -101.7258,14.686 -126.4409,24.357 -149.0068,58.385 -8.5966,12.895 -9.6712,17.909 -9.6712,43.341 0,33.311 6.4474,49.788 26.8643,70.205 28.2969,28.297 76.6525,40.117 138.6193,33.312 45.1319,-5.015 80.5927,-17.194 109.606,-37.969 l 22.9241,-16.476 49.4302,49.788 49.7883,49.788 -10.3875,11.462 c -30.0879,31.163 -94.2038,62.684 -154.0215,75.22 -30.8043,6.448 -121.4262,11.821 -141.4848,8.239 z"
           id="path1084"
           style="fill:#ffffff" />
        <path
           stroke="null"
           d="m 3278.7039,11647.2 c -92.7711,-13.253 -179.8111,-73.429 -218.8538,-150.798 -25.0732,-49.789 -32.5952,-94.92 -35.8189,-216.705 -3.5819,-143.276 5.0146,-245.001 25.4314,-295.864 19.3423,-47.998 55.8776,-93.13 101.7259,-123.934 101.7258,-69.131 249.2999,-70.563 351.0257,-3.582 65.5487,42.983 106.7405,102.084 123.2172,176.946 7.522,34.028 7.8802,44.057 7.8802,195.213 0,172.647 -1.4328,188.766 -21.4914,241.778 -18.984,51.221 -67.6978,107.099 -119.6353,137.903 -59.8176,35.461 -137.903,49.788 -213.481,39.043 z m 102.8004,-149.007 c 37.6099,-14.686 64.116,-41.55 77.7272,-78.086 12.1784,-32.237 15.4021,-75.936 15.4021,-195.213 -0.3582,-124.65 -4.2982,-164.409 -19.7004,-198.079 -39.0427,-85.249 -163.6926,-102.8 -228.1667,-32.237 -30.8043,33.67 -37.6099,64.833 -41.55,185.542 -2.1492,76.295 2.5073,187.692 9.6711,220.287 6.0892,28.297 17.9095,49.788 37.9681,68.772 20.4168,18.984 32.9534,25.79 59.1012,33.312 23.9987,6.806 66.9815,4.657 89.5474,-4.298 z"
           id="path1086"
           style="fill:#ffffff" />
        <path
           stroke="null"
           d="m 569.00006,11228.476 v -415.5 l 267.92578,0.717 267.56756,1.074 1.0746,70.564 0.7164,70.921 -188.04953,0.716 -188.04951,1.075 -1.07457,342.071 -0.71638,342.071 -79.51808,1.075 -79.87627,0.716 z"
           id="path1088"
           style="fill:#ffffff" />
        <path
           stroke="null"
           d="m 1238.8145,11228.476 v -415.5 h 80.5927 80.5926 v 415.5 415.5 h -80.5926 -80.5927 z"
           id="path1090"
           style="fill:#ffffff" />
        <path
           stroke="null"
           d="m 2284.728,11228.834 v -415.858 h 178.3784 c 98.1439,0 191.9895,1.791 208.4663,3.582 88.4728,10.388 155.8124,53.37 188.0495,119.994 17.5513,36.177 23.9987,68.056 23.9987,116.411 0,47.281 -8.9548,83.1 -29.3716,114.621 -13.253,20.417 -44.0573,49.788 -64.4741,61.25 -7.8802,4.657 -14.3276,8.955 -14.3276,10.388 0,1.074 8.9548,8.238 20.0586,16.118 10.7457,7.88 27.2224,23.999 36.1772,35.819 29.3715,38.685 40.4754,71.996 40.4754,123.934 0,111.755 -63.3996,192.348 -173.7219,220.286 -22.2078,5.373 -47.9974,6.448 -219.212,7.522 l -194.497,1.433 v -415.5 z m 356.3985,266.493 c 46.5647,-12.178 69.847,-42.624 69.847,-91.338 0,-42.266 -17.5513,-70.563 -53.3702,-87.04 -15.044,-7.164 -23.9987,-7.88 -113.9043,-8.955 l -97.7857,-1.074 v 96.711 97.069 h 87.04 c 66.9815,0 92.0547,-1.433 108.1733,-5.373 z m 16.835,-338.131 c 22.9241,-7.163 42.9827,-25.431 54.803,-48.713 8.9547,-17.91 10.7457,-25.432 10.7457,-48.356 0,-45.848 -22.9242,-80.593 -62.325,-95.637 -13.6112,-5.014 -33.3117,-6.089 -115.6952,-7.522 l -99.5767,-1.432 v 104.591 104.233 l 99.5767,-1.433 c 64.4741,-0.716 103.8749,-2.865 112.4715,-5.731 z"
           id="path1092"
           style="fill:#ffffff" />
        <path
           stroke="null"
           d="m 4002.9632,11641.11 c -3.2237,-4.656 -299.8047,-821.686 -299.8047,-824.91 0,-2.149 35.819,-2.866 83.1,-2.507 l 83.1,1.074 24.7151,72.713 25.0732,72.354 148.6487,-0.716 148.6487,-1.075 23.9987,-71.638 23.9987,-71.638 83.0999,-1.074 83.4582,-0.717 -1.791,7.88 c -1.4327,4.657 -69.1305,191.274 -150.7978,414.784 l -148.2904,406.545 -63.0414,1.075 c -34.3862,0.358 -63.3995,-0.359 -64.1159,-2.15 z m 119.2771,-394.366 c 27.5806,-81.309 50.1465,-148.291 50.1465,-149.365 0,-0.717 -46.9228,-1.433 -104.2331,-1.433 -97.4276,0 -104.2332,0.358 -102.084,6.089 1.4327,3.582 23.9987,68.414 50.5047,144.351 54.4448,157.245 52.2957,151.156 54.0866,149.365 0.7164,-0.717 23.9987,-67.698 51.5793,-149.007 z"
           id="path1094"
           style="fill:#ffffff" />
        <path
           stroke="null"
           d="m 855.55169,10495.978 -19.34224,-19.7 h 10.74569 c 7.52198,0 14.32758,3.582 22.92413,12.537 l 12.17844,12.536 12.89482,-12.536 c 8.59655,-8.597 16.11853,-12.537 23.28232,-12.537 h 10.3875 l -19.34224,19.7 c -11.10388,11.104 -22.56594,19.701 -26.86422,19.701 -4.29827,0 -15.76034,-8.597 -26.86422,-19.701 z"
           id="path1096"
           style="fill:#ffffff" />
        <path
           stroke="null"
           d="m 615.5647,10456.219 c -31.52068,-13.611 -46.56464,-41.908 -46.56464,-87.398 0,-48.714 16.83491,-77.011 51.57929,-86.324 27.93878,-7.521 70.92153,3.224 75.93618,18.985 3.5819,11.82 -3.22371,14.327 -18.26767,6.447 -16.83491,-8.597 -44.4155,-9.313 -59.10127,-1.791 -22.56594,11.82 -34.02801,56.236 -23.64051,92.055 6.44741,22.207 22.92413,40.117 40.83361,44.057 12.53663,2.507 35.10258,-2.507 45.49007,-10.387 10.3875,-7.881 12.53663,-7.164 12.53663,5.014 0,9.671 -2.14914,12.179 -15.04396,17.91 -18.26767,8.238 -46.20645,8.954 -63.75774,1.432 z"
           id="path1098"
           style="fill:#ffffff" />
        <path
           stroke="null"
           d="m 866.65557,10455.861 c -8.23836,-16.118 -61.25041,-167.991 -59.81765,-171.931 2.50733,-6.447 11.10388,-5.731 17.90948,0.717 2.86552,3.223 8.23836,14.327 11.82025,25.431 l 6.08922,19.701 37.6099,-1.075 37.96809,-1.075 7.52198,-21.133 c 7.88017,-22.208 16.11853,-30.088 26.50603,-25.073 5.73103,2.865 3.94008,10.387 -23.9987,87.398 -16.83491,46.207 -32.23706,86.324 -34.02801,88.831 -5.37284,6.448 -23.64051,5.373 -27.58059,-1.791 z m 29.37154,-62.683 c 7.52198,-22.208 13.25301,-41.55 13.25301,-42.983 0,-1.791 -13.96939,-2.865 -30.8043,-2.865 -23.28232,0 -30.08792,1.074 -29.01335,4.656 1.07457,2.149 7.88017,21.492 15.04396,42.983 7.16379,21.133 14.32758,38.326 15.40215,38.326 1.43276,0 8.59655,-18.267 16.11853,-40.117 z"
           id="path1100"
           style="fill:#ffffff" />
        <path
           stroke="null"
           d="m 1087.6585,10458.369 c -5.731,-3.582 -6.4474,-11.821 -6.4474,-89.548 0,-82.383 0.3582,-85.607 7.1638,-87.756 3.9401,-1.075 8.5966,-1.075 10.7457,0 2.1491,1.433 3.5819,30.804 3.5819,77.369 0,41.191 1.4327,74.861 3.2237,74.861 1.4328,0 15.7603,-33.311 31.1625,-73.787 27.5806,-71.638 34.028,-82.742 45.4901,-78.085 2.8655,1.074 19.7004,36.893 37.2517,79.518 l 31.5206,77.727 1.0746,-77.727 c 1.0746,-80.951 1.791,-85.249 16.8349,-79.518 4.6565,1.791 5.3729,15.044 5.3729,89.547 v 87.399 l -8.9548,2.149 c -4.6564,1.074 -12.8948,0.716 -18.2676,-1.075 -8.9548,-2.865 -13.253,-11.462 -38.3263,-71.996 -15.7604,-37.968 -29.3716,-68.772 -30.8043,-68.772 -1.0746,0 -13.9694,30.804 -28.6552,68.056 -14.6857,37.61 -27.5806,68.772 -28.6551,69.488 -6.4474,3.94 -27.9388,5.373 -33.3117,2.15 z"
           id="path1102"
           style="fill:#ffffff" />
        <path
           stroke="null"
           d="m 1463.0412,10459.085 c -6.0893,-9.671 -62.6832,-173.722 -60.8923,-176.587 2.8656,-4.657 15.044,-3.941 18.2677,1.074 1.4328,2.507 6.0892,13.611 10.0293,24.357 l 7.1638,19.7 38.3263,1.075 37.9681,1.075 7.8801,-23.283 c 3.9401,-12.536 10.0293,-23.998 13.253,-25.073 7.8802,-3.224 19.7005,1.075 17.9095,6.089 -0.7164,2.507 -15.0439,41.55 -31.1625,86.682 -16.4767,45.49 -31.5206,83.458 -33.6698,84.891 -5.3728,3.582 -22.9241,3.582 -25.0732,0 z m 27.5805,-63.4 c 6.8056,-19.7 13.6112,-38.684 15.044,-41.908 2.1491,-5.731 -0.3582,-6.447 -29.7297,-6.447 h -32.5953 l 14.3276,40.117 c 14.3276,40.475 17.5513,47.281 19.3422,45.132 0.7164,-0.716 6.8056,-17.193 13.6112,-36.894 z"
           id="path1104"
           style="fill:#ffffff" />
        <path
           stroke="null"
           d="m 1682.2532,10458.369 c -5.7311,-3.582 -6.4475,-11.821 -6.4475,-89.548 0,-80.234 0.3582,-85.607 6.8056,-87.756 16.1186,-5.015 18.2677,0 18.2677,41.55 v 39.042 h 14.6858 c 19.7004,0 31.5207,-12.178 44.4155,-46.564 5.3728,-14.686 11.1039,-27.939 12.5366,-29.73 3.5819,-3.94 16.1185,-5.731 20.775,-2.865 5.0147,2.865 -20.775,65.906 -32.2371,78.085 -5.3728,6.089 -6.8056,9.671 -3.94,10.746 20.0586,7.163 32.237,32.953 26.1478,54.444 -3.9401,14.328 -8.9547,20.775 -21.4914,27.223 -12.8948,6.805 -71.2797,10.387 -79.518,5.373 z m 70.5633,-26.865 c 11.4621,-11.104 11.4621,-26.864 0.7164,-39.759 -7.1638,-8.238 -12.1785,-10.029 -30.4461,-11.462 l -22.2078,-1.433 v 30.805 30.804 h 21.4914 c 18.2676,0 23.2823,-1.433 30.4461,-8.955 z"
           id="path1106"
           style="fill:#ffffff" />
        <path
           stroke="null"
           d="m 1970.5957,10457.652 c -8.2383,-12.178 -64.1159,-173.364 -60.8922,-175.154 1.791,-1.433 6.0892,-1.791 9.3129,-1.433 3.2238,0.716 6.8056,1.433 8.2384,1.433 1.0746,0.358 5.731,10.745 10.0293,23.64 l 7.8802,23.641 37.6099,-1.075 37.9681,-1.075 6.8056,-19.7 c 3.5819,-10.746 8.2383,-21.133 10.0293,-22.924 5.0146,-5.015 17.1931,-6.089 20.0586,-1.791 2.1491,3.94 -53.7284,165.483 -60.534,174.438 -4.2983,5.731 -22.566,5.731 -26.5061,0 z m 28.6552,-67.339 c 7.522,-20.775 13.253,-38.685 13.253,-40.118 0,-1.791 -13.6112,-2.865 -30.4461,-2.865 -16.8349,0 -30.4461,0.358 -30.4461,1.074 0,1.433 23.6405,70.922 26.8642,78.802 3.9401,9.313 6.0892,5.373 20.775,-36.893 z"
           id="path1108"
           style="fill:#ffffff" />
        <path
           stroke="null"
           d="m 2353.8585,10459.801 c -3.5819,-1.432 -4.6564,-22.924 -4.6564,-89.189 0,-74.145 0.7164,-87.398 5.3728,-89.189 2.8655,-1.075 7.8802,-1.075 10.7457,0 4.6565,1.791 5.3729,13.969 5.3729,78.085 0.3581,60.892 1.0745,74.504 4.6564,69.847 2.5073,-3.224 16.4767,-37.61 31.1625,-76.294 26.506,-68.773 31.1625,-76.653 43.6991,-71.996 2.8655,1.074 18.6259,35.819 35.1026,77.01 16.4767,41.55 31.1625,75.22 32.9534,75.22 1.4328,0 2.8656,-33.67 2.8656,-74.861 0,-63.042 0.7163,-75.22 5.3728,-77.011 2.8655,-1.075 7.8802,-1.075 10.7457,0 4.6565,1.791 5.3728,15.044 5.3728,89.189 v 87.04 l -10.0293,2.508 c -5.731,1.074 -14.3276,0.358 -19.3422,-1.433 -9.3129,-3.582 -12.1785,-8.955 -49.4302,-101.368 -8.5965,-21.491 -16.8349,-38.684 -17.9095,-38.684 -1.4327,0 -14.3275,29.729 -28.6551,66.265 -14.3276,36.177 -27.9388,67.698 -30.4461,69.847 -5.7311,4.656 -26.8642,7.88 -32.9535,5.014 z"
           id="path1110"
           style="fill:#ffffff" />
        <path
           stroke="null"
           d="m 2688.4076,10459.801 c -1.4328,-1.432 -2.5074,-31.879 -2.5074,-67.697 0,-60.176 0.7164,-65.907 8.2384,-80.593 21.1332,-42.267 92.7711,-43.341 116.0534,-1.791 7.8802,13.611 8.2384,17.551 7.1638,82.383 l -0.7164,68.057 h -8.9547 -8.9548 l -1.7909,-68.057 c -1.791,-74.503 -3.2237,-79.876 -23.6405,-89.547 -14.3276,-6.805 -23.2823,-6.805 -39.0427,-0.358 -22.5659,9.671 -24.7151,17.193 -26.8642,91.696 -1.791,63.4 -2.1491,66.266 -8.9547,67.34 -4.2983,0.716 -8.5966,0 -10.0294,-1.433 z"
           id="path1112"
           style="fill:#ffffff" />
        <path
           stroke="null"
           d="m 2968.1536,10458.01 c -5.731,-3.223 -6.4474,-11.462 -6.4474,-89.189 0,-82.383 0.3582,-85.607 7.1638,-87.756 3.9401,-1.075 8.5965,-1.075 10.7457,0 2.1491,1.432 3.5819,29.371 3.5819,73.787 0,39.042 1.4327,71.28 3.2237,71.28 1.7909,0 18.6259,-29.372 37.9681,-65.191 18.984,-36.177 37.2517,-68.414 40.4754,-71.996 3.9401,-4.298 9.6711,-6.089 18.2677,-5.373 l 12.8948,1.075 1.0746,86.323 c 0.7163,77.727 0.3582,86.682 -5.0147,88.831 -3.2237,1.433 -8.9547,1.433 -12.8948,0 -6.4474,-1.791 -6.8056,-5.731 -5.731,-71.638 0.7163,-38.326 0.3582,-69.488 -0.7164,-69.488 -1.0746,0 -17.1931,29.371 -35.819,64.832 -18.6258,35.461 -36.5353,66.623 -39.4008,69.489 -7.522,6.805 -22.2078,9.671 -29.3716,5.014 z"
           id="path1114"
           style="fill:#ffffff" />
        <path
           stroke="null"
           d="m 3243.6014,10459.801 c -1.4328,-1.432 -2.5074,-41.55 -2.5074,-89.547 0,-73.787 0.7164,-87.04 5.3729,-88.831 2.8655,-1.075 7.8801,-1.075 10.7457,0 4.6564,1.791 5.3728,14.328 4.6564,90.622 -1.0745,85.607 -1.4327,88.115 -8.2383,89.189 -4.2983,0.716 -8.5966,0 -10.0293,-1.433 z"
           id="path1116"
           style="fill:#ffffff" />
        <path
           stroke="null"
           d="m 3438.8147,10454.428 c -27.2224,-13.611 -43.6992,-45.49 -43.6992,-85.249 0,-59.817 34.028,-94.92 86.3237,-88.831 24.3569,2.866 40.4754,12.537 41.9082,25.074 1.4328,11.462 -2.5073,12.178 -17.9095,2.507 -8.2383,-5.015 -18.2677,-7.164 -32.237,-7.164 -35.819,0 -53.0121,22.208 -53.0121,69.131 0,29.729 8.9548,52.654 25.7897,64.832 13.9694,10.029 40.4754,9.671 58.0267,-0.716 17.5513,-10.388 20.775,-10.03 19.3422,2.149 -0.7164,7.522 -4.6564,11.462 -17.1931,17.909 -20.775,10.388 -46.5646,10.388 -67.3396,0.358 z"
           id="path1118"
           style="fill:#ffffff" />
        <path
           stroke="null"
           d="m 3651.9374,10459.801 c -3.94,-4.298 -3.2237,-176.945 1.0746,-177.303 2.1492,-0.359 6.0892,-0.359 8.9548,-0.359 2.8655,0 7.1637,0 8.9547,0.359 2.5073,0.358 3.2237,30.804 2.8655,89.189 l -1.0746,88.473 -8.9547,1.074 c -5.0146,0.716 -10.3875,0 -11.8203,-1.433 z"
           id="path1120"
           style="fill:#ffffff" />
        <path
           stroke="null"
           d="m 3822.4357,10459.801 c -3.5819,-1.432 -4.6565,-22.924 -4.6565,-89.189 0,-74.145 0.7164,-87.398 5.3728,-89.189 13.253,-5.015 16.1186,1.074 16.1186,35.819 v 33.67 h 22.5659 c 26.8642,0 46.9228,10.029 56.594,28.655 13.9694,25.79 5.0146,60.176 -18.2677,72.354 -12.5366,6.448 -68.7724,12.179 -77.7271,7.88 z m 68.7724,-28.297 c 13.253,-13.253 12.5366,-37.968 -1.4328,-52.295 -9.3129,-8.955 -13.253,-10.388 -30.4461,-10.388 h -20.0586 v 35.819 35.819 h 21.4913 c 18.2677,0 23.2824,-1.433 30.4462,-8.955 z"
           id="path1122"
           style="fill:#ffffff" />
        <path
           stroke="null"
           d="m 4080.3321,10457.652 c -1.7909,-2.507 -16.8349,-42.266 -33.3116,-88.114 -30.0879,-84.533 -31.5207,-93.846 -15.044,-88.831 5.0147,1.791 10.0293,10.029 15.4022,25.789 l 8.2383,23.283 37.6099,-1.075 37.9681,-1.075 7.1638,-19.7 c 9.6711,-26.864 11.4621,-29.013 22.2078,-27.222 5.0146,1.074 9.6711,2.149 10.0293,2.865 1.4327,1.791 -59.4595,169.066 -63.3996,174.08 -2.1491,2.149 -8.2383,4.298 -13.6112,4.298 -5.3728,0 -11.462,-2.149 -13.253,-4.298 z m 28.6552,-64.474 c 7.522,-22.208 13.253,-41.55 13.253,-42.983 0,-1.791 -13.9694,-2.865 -30.8043,-2.865 -27.9388,0 -30.4461,0.716 -28.297,6.447 1.0746,3.224 7.8802,22.566 15.044,42.983 6.8056,20.059 13.6112,36.535 15.044,36.535 1.0745,0 8.2383,-18.267 15.7603,-40.117 z"
           id="path1124"
           style="fill:#ffffff" />
        <path
           stroke="null"
           d="m 4295.604,10457.294 c -0.7163,-2.507 -1.0745,-42.266 -0.7163,-88.473 l 1.0745,-84.174 45.8483,-1.075 45.8482,-1.075 -1.0745,8.239 c -1.0746,7.88 -2.8655,8.238 -35.1026,10.029 l -34.028,1.791 v 77.011 c 0,47.281 -1.4328,78.085 -3.5819,79.518 -5.731,4.298 -16.1185,3.224 -18.2677,-1.791 z"
           id="path1126"
           style="fill:#ffffff" />
      </g>
    </g>
  </g>
</svg>
