<svg width="500" height="500" xmlns="http://www.w3.org/2000/svg" version="1.1">
 <g id="Layer_1">
  <title>Layer 1</title>
  <g stroke="null" id="svg_61">
   <g stroke="null" id="svg_1">
    <title stroke="null">logo-nova-pt</title>
    <path stroke="null" id="svg_2" d="m139.13288,294.76957l0,12.37492a6.71492,6.71492 0 0 0 6.69463,7.10036l0.40574,0a6.83664,6.83664 0 0 0 7.10036,-6.69463l0,-12.78066l-2.84015,0l0,11.56345a6.08603,6.08603 0 0 1 -0.81147,3.65162a4.23993,4.23993 0 0 1 -6.08603,0.6086l-0.6086,-0.6086a7.42495,7.42495 0 0 1 -0.81147,-3.65162l0,-11.56345l-3.04301,0z"/>
    <polygon stroke="null" id="svg_3" points="174.4318389892578,307.9559631347656 160.43397521972656,293.3494567871094 160.43397521972656,313.8391418457031 163.27413940429688,313.8391418457031 163.27413940429688,300.44989013671875 177.27198791503906,315.05633544921875 177.27198791503906,294.76953125 174.4318389892578,294.76953125 174.4318389892578,307.9559631347656 "/>
    <rect stroke="null" id="svg_4" x="184.37235" y="294.76957" width="2.84015" height="19.06955"/>
    <polygon stroke="null" id="svg_5" points="200.8046417236328,307.9559631347656 195.32717895507812,294.76953125 192.2841796875,294.76953125 200.6017608642578,315.25927734375 209.32505798339844,294.76953125 206.07916259765625,294.76953125 200.8046417236328,307.9559631347656 "/>
    <polygon stroke="null" id="svg_6" points="214.19387817382812,313.8391418457031 224.7430419921875,313.8391418457031 224.7430419921875,310.9989318847656 217.0340576171875,310.9989318847656 217.0340576171875,304.7101135253906 224.54019165039062,304.7101135253906 224.54019165039062,302.0727844238281 217.0340576171875,302.0727844238281 217.0340576171875,297.4068603515625 224.7430419921875,297.4068603515625 224.7430419921875,294.76953125 214.19387817382812,294.76953125 214.19387817382812,313.8391418457031 "/>
    <path stroke="null" id="svg_7" d="m240.56666,303.69574a5.70058,5.70058 0 0 0 -0.6086,-7.70897a8.5813,8.5813 0 0 0 -5.47742,-1.42007l-3.44875,0l0,19.06955l2.84015,0l0,-7.91183l0.6086,0l5.47742,7.91183l3.44875,0l-5.88316,-8.1147a4.05735,4.05735 0 0 0 3.04301,-1.82581m-6.69463,-0.20287l0,-6.08603l1.01434,0c2.63728,0 4.05735,1.01434 4.05735,2.84015s-1.42007,3.24588 -4.05735,3.24588l-1.01434,0z"/>
    <path stroke="null" id="svg_8" d="m254.15878,311.40471a3.26617,3.26617 0 0 1 -2.63728,-1.21721a4.62538,4.62538 0 0 1 -0.6086,-2.23154l-2.84015,0.6086a6.08603,6.08603 0 0 0 2.02868,4.05735a5.0514,5.0514 0 0 0 4.05735,1.42007a6.22803,6.22803 0 0 0 6.28889,-6.28889a5.61943,5.61943 0 0 0 -1.01434,-3.24588a7.83069,7.83069 0 0 0 -3.44875,-2.23154l-1.82581,-0.81147c-1.42007,-0.6086 -2.02868,-1.42007 -2.02868,-2.23154a1.84609,1.84609 0 0 1 0.81147,-1.62294a2.4547,2.4547 0 0 1 2.02868,-0.6086a3.81391,3.81391 0 0 1 1.62294,0.40574a2.71843,2.71843 0 0 1 1.21721,1.42007l2.43441,-1.42007a5.84259,5.84259 0 0 0 -5.27456,-3.24588a6.20775,6.20775 0 0 0 -4.05735,1.42007a4.7471,4.7471 0 0 0 -1.62294,3.65162c0,2.02868 1.42007,3.65162 3.85448,4.86882l1.82581,0.81147l1.21721,0.6086a1.58237,1.58237 0 0 1 0.81147,0.81147a1.54179,1.54179 0 0 1 0.40574,0.81147c0,0.40574 0.20287,0.6086 0.20287,1.01434a3.04301,3.04301 0 0 1 -0.81147,2.23154a4.28051,4.28051 0 0 1 -2.63728,1.01434"/>
    <rect stroke="null" id="svg_9" x="266.12797" y="294.76957" width="2.84015" height="19.06955"/>
    <path stroke="null" id="svg_10" d="m284.79179,295.1753a16.89887,16.89887 0 0 0 -4.46309,-0.6086l-4.05735,0l0,19.06955l4.05735,0a16.89887,16.89887 0 0 0 4.46309,-0.6086a9.85936,9.85936 0 0 0 5.88316,-12.57779a11.50259,11.50259 0 0 0 -2.43441,-3.65162a17.97407,17.97407 0 0 0 -3.44875,-1.62294m1.21721,13.99786a8.37843,8.37843 0 0 1 -2.23154,1.42007a17.75091,17.75091 0 0 1 -3.24588,0.40574l-1.21721,0l0,-13.59213l1.21721,0a7.42495,7.42495 0 0 1 5.68029,1.82581a7.0395,7.0395 0 0 1 2.02868,5.07169a6.47148,6.47148 0 0 1 -2.23154,4.86882"/>
    <path stroke="null" id="svg_11" d="m296.35524,313.83912l3.04301,0l2.23154,-4.66595l8.1147,0l2.02868,4.66595l3.24588,0l-9.12904,-20.28676l-9.53478,20.28676zm6.28889,-7.30323l3.04301,-6.49176l2.84015,6.49176l-5.88316,0z"/>
    <path stroke="null" id="svg_12" d="m329.62552,295.1753a16.89887,16.89887 0 0 0 -4.46309,-0.6086l-4.05735,0l0,19.06955l4.05735,0a16.89887,16.89887 0 0 0 4.46309,-0.6086a9.85936,9.85936 0 0 0 5.88316,-12.57779a11.50259,11.50259 0 0 0 -2.43441,-3.65162a17.97407,17.97407 0 0 0 -3.44875,-1.62294m1.21721,13.99786a8.37843,8.37843 0 0 1 -2.23154,1.42007a17.75091,17.75091 0 0 1 -3.24588,0.40574l-1.21721,0l0,-13.59213l1.21721,0a7.42495,7.42495 0 0 1 5.68029,1.82581a7.0395,7.0395 0 0 1 2.02868,5.07169a6.47148,6.47148 0 0 1 -2.23154,4.86882"/>
    <polygon stroke="null" id="svg_13" points="343.2176513671875,313.8391418457031 353.7667236328125,313.8391418457031 353.7667236328125,310.9989318847656 346.05780029296875,310.9989318847656 346.05780029296875,304.7101135253906 353.5638732910156,304.7101135253906 353.5638732910156,302.0727844238281 346.05780029296875,302.0727844238281 346.05780029296875,297.4068603515625 353.7667236328125,297.4068603515625 353.7667236328125,294.76953125 343.2176513671875,294.76953125 343.2176513671875,313.8391418457031 "/>
    <polygon stroke="null" id="svg_14" points="383.1826171875,307.9559631347656 369.184814453125,293.3494567871094 369.184814453125,313.8391418457031 372.0248718261719,313.8391418457031 372.0248718261719,300.44989013671875 386.022705078125,315.05633544921875 386.022705078125,294.76953125 383.1826171875,294.76953125 383.1826171875,307.9559631347656 "/>
    <path stroke="null" id="svg_15" d="m402.45497,294.36383a9.94051,9.94051 0 0 0 -7.30323,16.83801l0.40574,0.40574a10.14338,10.14338 0 0 0 13.79499,-0.40574a9.92022,9.92022 0 0 0 0,-13.99786a9.6565,9.6565 0 0 0 -6.8975,-2.84015m4.86882,15.0122a6.85692,6.85692 0 0 1 -9.94051,0a7.10036,7.10036 0 0 1 -0.20287,-10.14338a7.36409,7.36409 0 0 1 5.27456,-2.23154a6.93807,6.93807 0 0 1 7.10036,7.10036a8.29728,8.29728 0 0 1 -2.23154,5.27456"/>
    <polygon stroke="null" id="svg_16" points="423.95892333984375,307.9559631347656 418.6844177246094,294.76953125 415.43841552734375,294.76953125 423.95892333984375,315.25927734375 432.47943115234375,294.76953125 429.2335205078125,294.76953125 423.95892333984375,307.9559631347656 "/>
    <path stroke="null" id="svg_17" d="m433.4937,313.83912l3.04301,0l2.02868,-4.66595l8.1147,0l2.02868,4.66595l3.24588,0l-9.12904,-20.28676l-9.33191,20.28676zm6.49176,-7.30323l3.04301,-6.49176l2.84015,6.49176l-5.88316,0z"/>
    <path stroke="null" id="svg_18" d="m147.85619,327.63411a11.15772,11.15772 0 0 0 -4.46309,-0.40574l-4.05735,0l0,19.06955l4.05735,0a16.89887,16.89887 0 0 0 4.46309,-0.6086a9.71736,9.71736 0 0 0 5.88316,-12.37492a15.43822,15.43822 0 0 0 -2.43441,-3.85448a14.20073,14.20073 0 0 0 -3.44875,-1.82581m1.21721,13.99786a7.01922,7.01922 0 0 1 -2.43441,1.42007a17.75091,17.75091 0 0 1 -3.24588,0.40574l-1.21721,0l0,-13.79499l1.21721,0a7.42495,7.42495 0 0 1 5.68029,1.82581a7.0395,7.0395 0 0 1 2.02868,5.07169a7.2018,7.2018 0 0 1 -2.02868,5.07169"/>
    <polygon stroke="null" id="svg_19" points="160.2311553955078,346.2979736328125 170.7802276611328,346.2979736328125 170.7802276611328,343.457763671875 163.07125854492188,343.457763671875 163.07125854492188,337.1689453125 170.37449645996094,337.1689453125 170.37449645996094,334.3287048339844 163.07125854492188,334.3287048339844 163.07125854492188,329.86572265625 170.7802276611328,329.86572265625 170.7802276611328,327.0255432128906 160.2311553955078,327.0255432128906 160.2311553955078,346.2979736328125 "/>
    <polygon stroke="null" id="svg_20" points="190.25550842285156,327.0255432128906 187.41539001464844,327.0255432128906 187.41539001464844,346.2979736328125 195.93577575683594,346.2979736328125 195.93577575683594,343.457763671875 190.25550842285156,343.457763671875 190.25550842285156,327.0255432128906 "/>
    <rect stroke="null" id="svg_21" x="201.21035" y="327.02551" width="2.84015" height="19.06955"/>
    <path stroke="null" id="svg_22" d="m218.04836,334.93735l-1.82581,-0.81147c-1.42007,-0.6086 -2.02868,-1.42007 -2.02868,-2.23154a1.84609,1.84609 0 0 1 0.81147,-1.62294a3.38789,3.38789 0 0 1 3.65162,-0.20287a2.71843,2.71843 0 0 1 1.21721,1.42007l2.43441,-1.42007a5.84259,5.84259 0 0 0 -5.27456,-3.24588a6.20775,6.20775 0 0 0 -4.05735,1.42007a4.7471,4.7471 0 0 0 -1.62294,3.65162a5.43685,5.43685 0 0 0 3.85448,4.86882l1.82581,0.81147l1.21721,0.6086a1.58237,1.58237 0 0 1 0.81147,0.81147a1.54179,1.54179 0 0 1 0.40574,0.81147c0,0.40574 0.20287,0.6086 0.20287,1.01434a3.04301,3.04301 0 0 1 -0.81147,2.23154a2.41412,2.41412 0 0 1 -2.23154,0.81147a3.26617,3.26617 0 0 1 -2.63728,-1.21721a4.82825,4.82825 0 0 1 -0.6086,-2.43441l-2.84015,0.6086a6.08603,6.08603 0 0 0 2.02868,4.05735a5.0514,5.0514 0 0 0 4.05735,1.42007a6.28889,6.28889 0 0 0 4.46309,-1.82581a5.96431,5.96431 0 0 0 1.82581,-4.46309a5.61943,5.61943 0 0 0 -1.01434,-3.24588a9.63621,9.63621 0 0 0 -3.85448,-1.82581"/>
    <path stroke="null" id="svg_23" d="m236.71218,335.95168a4.64567,4.64567 0 0 0 1.62294,-3.44875a5.11226,5.11226 0 0 0 -1.82581,-4.05735a6.34975,6.34975 0 0 0 -2.02868,-1.01434a7.72925,7.72925 0 0 0 -3.04301,-0.20287l-2.84015,0l0,19.06955l4.46309,0a8.92617,8.92617 0 0 0 3.24588,-0.40574a6.75549,6.75549 0 0 0 2.02868,-1.21721a5.53828,5.53828 0 0 0 1.62294,-3.85448a5.72087,5.72087 0 0 0 -0.81147,-3.04301a9.53478,9.53478 0 0 0 -2.43441,-1.82581m-5.47742,-6.08603l1.01434,0a4.05735,4.05735 0 0 1 2.23154,0.6086a2.94158,2.94158 0 0 1 0,4.05735a3.22559,3.22559 0 0 1 -2.43441,0.81147l-0.81147,0l0,-5.47742zm4.66595,12.98352a4.66595,4.66595 0 0 1 -2.84015,0.81147l-1.82581,0l0,-5.88316l1.62294,0a4.62538,4.62538 0 0 1 3.24588,0.81147a2.81986,2.81986 0 0 1 1.01434,2.02868a3.5299,3.5299 0 0 1 -1.21721,2.23154"/>
    <path stroke="null" id="svg_24" d="m255.17312,326.82264a10.14338,10.14338 0 0 0 -7.10036,2.84015a9.85936,9.85936 0 0 0 -3.04301,6.8975a9.1899,9.1899 0 0 0 3.24588,7.5061a10.2651,10.2651 0 0 0 13.79499,-0.20287a9.51449,9.51449 0 0 0 3.04301,-7.10036a9.9608,9.9608 0 0 0 -9.94051,-9.94051m4.86882,15.0122a7.0395,7.0395 0 0 1 -5.07169,2.02868a7.30323,7.30323 0 1 1 0,-14.60646a7.0395,7.0395 0 0 1 5.07169,2.02868a7.58725,7.58725 0 0 1 0,10.54911"/>
    <path stroke="null" id="svg_25" d="m268.96812,346.29793l3.04301,0l2.02868,-4.66595l8.1147,0l2.02868,4.66595l3.44875,0l-9.12904,-20.28676l-9.53478,20.28676zm6.49176,-7.30323l3.04301,-6.49176l2.84015,6.49176l-5.88316,0z"/>
    <path stroke="null" id="svg_26" d="m222.71431,198.81322a55.32198,55.32198 0 0 0 23.93837,-45.0366l-26.16991,0a28.78691,28.78691 0 0 1 -29.01006,28.60433a28.40146,28.40146 0 0 1 -23.53264,-12.57779a28.40146,28.40146 0 0 1 -5.07169,-16.02654l-26.16991,0a55.01768,55.01768 0 0 0 55.17998,54.77424a54.46994,54.46994 0 0 0 30.83587,-9.73764"/>
    <path stroke="null" id="svg_27" d="m348.08646,265.75951l32.45881,0l29.61866,-75.87247l29.4158,75.87247l33.27028,0q-23.7355,-56.29575 -47.47101,-112.38863l-29.82153,0c-14.60646,34.69035 -29.4158,69.3807 -44.02226,104.07106l-3.44875,8.31757"/>
    <path stroke="null" id="svg_28" d="m368.77895,161.89132l3.44875,-8.31757l-32.45881,0l-29.61866,75.87247l-29.4158,-75.87247l-33.27028,0c15.82367,37.5305 31.64734,74.85813 47.47101,112.38863l29.82153,0q22.31543,-52.03553 44.02226,-104.07106"/>
    <polygon stroke="null" id="svg_29" points="102.41387939453125,222.95440673828125 49.87116241455078,153.97950744628906 27.149993896484375,153.97950744628906 27.149993896484375,266.1652526855469 51.494110107421875,266.1652526855469 51.494110107421875,194.755859375 105.86260986328125,266.1652526855469 126.75798034667969,266.1652526855469 126.75798034667969,153.97950744628906 102.41387939453125,153.97950744628906 102.41387939453125,222.95440673828125 "/>
    <path stroke="null" id="svg_30" class="cls-1" d="m162.66552,265.96238a28.92891,28.92891 0 0 1 57.81725,0l26.16991,0a54.99739,54.99739 0 0 0 -109.95421,0l25.96705,0z" fill="#338141"/>
   </g>
   <g stroke="null" id="svg_31">
    <title stroke="null">logo-nova-pt</title>
    <path stroke="null" id="svg_32" d="m139.13288,294.76957l0,12.37492a6.71492,6.71492 0 0 0 6.69463,7.10036l0.40574,0a6.83664,6.83664 0 0 0 7.10036,-6.69463l0,-12.78066l-2.84015,0l0,11.56345a6.08603,6.08603 0 0 1 -0.81147,3.65162a4.23993,4.23993 0 0 1 -6.08603,0.6086l-0.6086,-0.6086a7.42495,7.42495 0 0 1 -0.81147,-3.65162l0,-11.56345l-3.04301,0z"/>
    <polygon stroke="null" id="svg_33" points="174.4318389892578,307.9559631347656 160.43397521972656,293.3494567871094 160.43397521972656,313.8391418457031 163.27413940429688,313.8391418457031 163.27413940429688,300.44989013671875 177.27198791503906,315.05633544921875 177.27198791503906,294.76953125 174.4318389892578,294.76953125 174.4318389892578,307.9559631347656 "/>
    <rect stroke="null" id="svg_34" x="184.37235" y="294.76957" width="2.84015" height="19.06955"/>
    <polygon stroke="null" id="svg_35" points="200.8046417236328,307.9559631347656 195.32717895507812,294.76953125 192.2841796875,294.76953125 200.6017608642578,315.25927734375 209.32505798339844,294.76953125 206.07916259765625,294.76953125 200.8046417236328,307.9559631347656 "/>
    <polygon stroke="null" id="svg_36" points="214.19387817382812,313.8391418457031 224.7430419921875,313.8391418457031 224.7430419921875,310.9989318847656 217.0340576171875,310.9989318847656 217.0340576171875,304.7101135253906 224.54019165039062,304.7101135253906 224.54019165039062,302.0727844238281 217.0340576171875,302.0727844238281 217.0340576171875,297.4068603515625 224.7430419921875,297.4068603515625 224.7430419921875,294.76953125 214.19387817382812,294.76953125 214.19387817382812,313.8391418457031 "/>
    <path stroke="null" id="svg_37" d="m240.56666,303.69574a5.70058,5.70058 0 0 0 -0.6086,-7.70897a8.5813,8.5813 0 0 0 -5.47742,-1.42007l-3.44875,0l0,19.06955l2.84015,0l0,-7.91183l0.6086,0l5.47742,7.91183l3.44875,0l-5.88316,-8.1147a4.05735,4.05735 0 0 0 3.04301,-1.82581m-6.69463,-0.20287l0,-6.08603l1.01434,0c2.63728,0 4.05735,1.01434 4.05735,2.84015s-1.42007,3.24588 -4.05735,3.24588l-1.01434,0z"/>
    <path stroke="null" id="svg_38" d="m254.15878,311.40471a3.26617,3.26617 0 0 1 -2.63728,-1.21721a4.62538,4.62538 0 0 1 -0.6086,-2.23154l-2.84015,0.6086a6.08603,6.08603 0 0 0 2.02868,4.05735a5.0514,5.0514 0 0 0 4.05735,1.42007a6.22803,6.22803 0 0 0 6.28889,-6.28889a5.61943,5.61943 0 0 0 -1.01434,-3.24588a7.83069,7.83069 0 0 0 -3.44875,-2.23154l-1.82581,-0.81147c-1.42007,-0.6086 -2.02868,-1.42007 -2.02868,-2.23154a1.84609,1.84609 0 0 1 0.81147,-1.62294a2.4547,2.4547 0 0 1 2.02868,-0.6086a3.81391,3.81391 0 0 1 1.62294,0.40574a2.71843,2.71843 0 0 1 1.21721,1.42007l2.43441,-1.42007a5.84259,5.84259 0 0 0 -5.27456,-3.24588a6.20775,6.20775 0 0 0 -4.05735,1.42007a4.7471,4.7471 0 0 0 -1.62294,3.65162c0,2.02868 1.42007,3.65162 3.85448,4.86882l1.82581,0.81147l1.21721,0.6086a1.58237,1.58237 0 0 1 0.81147,0.81147a1.54179,1.54179 0 0 1 0.40574,0.81147c0,0.40574 0.20287,0.6086 0.20287,1.01434a3.04301,3.04301 0 0 1 -0.81147,2.23154a4.28051,4.28051 0 0 1 -2.63728,1.01434"/>
    <rect stroke="null" id="svg_39" x="266.12797" y="294.76957" width="2.84015" height="19.06955"/>
    <path stroke="null" id="svg_40" d="m284.79179,295.1753a16.89887,16.89887 0 0 0 -4.46309,-0.6086l-4.05735,0l0,19.06955l4.05735,0a16.89887,16.89887 0 0 0 4.46309,-0.6086a9.85936,9.85936 0 0 0 5.88316,-12.57779a11.50259,11.50259 0 0 0 -2.43441,-3.65162a17.97407,17.97407 0 0 0 -3.44875,-1.62294m1.21721,13.99786a8.37843,8.37843 0 0 1 -2.23154,1.42007a17.75091,17.75091 0 0 1 -3.24588,0.40574l-1.21721,0l0,-13.59213l1.21721,0a7.42495,7.42495 0 0 1 5.68029,1.82581a7.0395,7.0395 0 0 1 2.02868,5.07169a6.47148,6.47148 0 0 1 -2.23154,4.86882"/>
    <path stroke="null" id="svg_41" d="m296.35524,313.83912l3.04301,0l2.23154,-4.66595l8.1147,0l2.02868,4.66595l3.24588,0l-9.12904,-20.28676l-9.53478,20.28676zm6.28889,-7.30323l3.04301,-6.49176l2.84015,6.49176l-5.88316,0z"/>
    <path stroke="null" id="svg_42" d="m329.62552,295.1753a16.89887,16.89887 0 0 0 -4.46309,-0.6086l-4.05735,0l0,19.06955l4.05735,0a16.89887,16.89887 0 0 0 4.46309,-0.6086a9.85936,9.85936 0 0 0 5.88316,-12.57779a11.50259,11.50259 0 0 0 -2.43441,-3.65162a17.97407,17.97407 0 0 0 -3.44875,-1.62294m1.21721,13.99786a8.37843,8.37843 0 0 1 -2.23154,1.42007a17.75091,17.75091 0 0 1 -3.24588,0.40574l-1.21721,0l0,-13.59213l1.21721,0a7.42495,7.42495 0 0 1 5.68029,1.82581a7.0395,7.0395 0 0 1 2.02868,5.07169a6.47148,6.47148 0 0 1 -2.23154,4.86882"/>
    <polygon stroke="null" id="svg_43" points="343.2176513671875,313.8391418457031 353.7667236328125,313.8391418457031 353.7667236328125,310.9989318847656 346.05780029296875,310.9989318847656 346.05780029296875,304.7101135253906 353.5638732910156,304.7101135253906 353.5638732910156,302.0727844238281 346.05780029296875,302.0727844238281 346.05780029296875,297.4068603515625 353.7667236328125,297.4068603515625 353.7667236328125,294.76953125 343.2176513671875,294.76953125 343.2176513671875,313.8391418457031 "/>
    <polygon stroke="null" id="svg_44" points="383.1826171875,307.9559631347656 369.184814453125,293.3494567871094 369.184814453125,313.8391418457031 372.0248718261719,313.8391418457031 372.0248718261719,300.44989013671875 386.022705078125,315.05633544921875 386.022705078125,294.76953125 383.1826171875,294.76953125 383.1826171875,307.9559631347656 "/>
    <path stroke="null" id="svg_45" d="m402.45497,294.36383a9.94051,9.94051 0 0 0 -7.30323,16.83801l0.40574,0.40574a10.14338,10.14338 0 0 0 13.79499,-0.40574a9.92022,9.92022 0 0 0 0,-13.99786a9.6565,9.6565 0 0 0 -6.8975,-2.84015m4.86882,15.0122a6.85692,6.85692 0 0 1 -9.94051,0a7.10036,7.10036 0 0 1 -0.20287,-10.14338a7.36409,7.36409 0 0 1 5.27456,-2.23154a6.93807,6.93807 0 0 1 7.10036,7.10036a8.29728,8.29728 0 0 1 -2.23154,5.27456"/>
    <polygon stroke="null" id="svg_46" points="423.95892333984375,307.9559631347656 418.6844177246094,294.76953125 415.43841552734375,294.76953125 423.95892333984375,315.25927734375 432.47943115234375,294.76953125 429.2335205078125,294.76953125 423.95892333984375,307.9559631347656 "/>
    <path stroke="null" id="svg_47" d="m433.4937,313.83912l3.04301,0l2.02868,-4.66595l8.1147,0l2.02868,4.66595l3.24588,0l-9.12904,-20.28676l-9.33191,20.28676zm6.49176,-7.30323l3.04301,-6.49176l2.84015,6.49176l-5.88316,0z"/>
    <path stroke="null" id="svg_48" d="m147.85619,327.63411a11.15772,11.15772 0 0 0 -4.46309,-0.40574l-4.05735,0l0,19.06955l4.05735,0a16.89887,16.89887 0 0 0 4.46309,-0.6086a9.71736,9.71736 0 0 0 5.88316,-12.37492a15.43822,15.43822 0 0 0 -2.43441,-3.85448a14.20073,14.20073 0 0 0 -3.44875,-1.82581m1.21721,13.99786a7.01922,7.01922 0 0 1 -2.43441,1.42007a17.75091,17.75091 0 0 1 -3.24588,0.40574l-1.21721,0l0,-13.79499l1.21721,0a7.42495,7.42495 0 0 1 5.68029,1.82581a7.0395,7.0395 0 0 1 2.02868,5.07169a7.2018,7.2018 0 0 1 -2.02868,5.07169"/>
    <polygon stroke="null" id="svg_49" points="160.2311553955078,346.2979736328125 170.7802276611328,346.2979736328125 170.7802276611328,343.457763671875 163.07125854492188,343.457763671875 163.07125854492188,337.1689453125 170.37449645996094,337.1689453125 170.37449645996094,334.3287048339844 163.07125854492188,334.3287048339844 163.07125854492188,329.86572265625 170.7802276611328,329.86572265625 170.7802276611328,327.0255432128906 160.2311553955078,327.0255432128906 160.2311553955078,346.2979736328125 "/>
    <polygon stroke="null" id="svg_50" points="190.25550842285156,327.0255432128906 187.41539001464844,327.0255432128906 187.41539001464844,346.2979736328125 195.93577575683594,346.2979736328125 195.93577575683594,343.457763671875 190.25550842285156,343.457763671875 190.25550842285156,327.0255432128906 "/>
    <rect stroke="null" id="svg_51" x="201.21035" y="327.02551" width="2.84015" height="19.06955"/>
    <path stroke="null" id="svg_52" d="m218.04836,334.93735l-1.82581,-0.81147c-1.42007,-0.6086 -2.02868,-1.42007 -2.02868,-2.23154a1.84609,1.84609 0 0 1 0.81147,-1.62294a3.38789,3.38789 0 0 1 3.65162,-0.20287a2.71843,2.71843 0 0 1 1.21721,1.42007l2.43441,-1.42007a5.84259,5.84259 0 0 0 -5.27456,-3.24588a6.20775,6.20775 0 0 0 -4.05735,1.42007a4.7471,4.7471 0 0 0 -1.62294,3.65162a5.43685,5.43685 0 0 0 3.85448,4.86882l1.82581,0.81147l1.21721,0.6086a1.58237,1.58237 0 0 1 0.81147,0.81147a1.54179,1.54179 0 0 1 0.40574,0.81147c0,0.40574 0.20287,0.6086 0.20287,1.01434a3.04301,3.04301 0 0 1 -0.81147,2.23154a2.41412,2.41412 0 0 1 -2.23154,0.81147a3.26617,3.26617 0 0 1 -2.63728,-1.21721a4.82825,4.82825 0 0 1 -0.6086,-2.43441l-2.84015,0.6086a6.08603,6.08603 0 0 0 2.02868,4.05735a5.0514,5.0514 0 0 0 4.05735,1.42007a6.28889,6.28889 0 0 0 4.46309,-1.82581a5.96431,5.96431 0 0 0 1.82581,-4.46309a5.61943,5.61943 0 0 0 -1.01434,-3.24588a9.63621,9.63621 0 0 0 -3.85448,-1.82581"/>
    <path stroke="null" id="svg_53" d="m236.71218,335.95168a4.64567,4.64567 0 0 0 1.62294,-3.44875a5.11226,5.11226 0 0 0 -1.82581,-4.05735a6.34975,6.34975 0 0 0 -2.02868,-1.01434a7.72925,7.72925 0 0 0 -3.04301,-0.20287l-2.84015,0l0,19.06955l4.46309,0a8.92617,8.92617 0 0 0 3.24588,-0.40574a6.75549,6.75549 0 0 0 2.02868,-1.21721a5.53828,5.53828 0 0 0 1.62294,-3.85448a5.72087,5.72087 0 0 0 -0.81147,-3.04301a9.53478,9.53478 0 0 0 -2.43441,-1.82581m-5.47742,-6.08603l1.01434,0a4.05735,4.05735 0 0 1 2.23154,0.6086a2.94158,2.94158 0 0 1 0,4.05735a3.22559,3.22559 0 0 1 -2.43441,0.81147l-0.81147,0l0,-5.47742zm4.66595,12.98352a4.66595,4.66595 0 0 1 -2.84015,0.81147l-1.82581,0l0,-5.88316l1.62294,0a4.62538,4.62538 0 0 1 3.24588,0.81147a2.81986,2.81986 0 0 1 1.01434,2.02868a3.5299,3.5299 0 0 1 -1.21721,2.23154"/>
    <path stroke="null" id="svg_54" d="m255.17312,326.82264a10.14338,10.14338 0 0 0 -7.10036,2.84015a9.85936,9.85936 0 0 0 -3.04301,6.8975a9.1899,9.1899 0 0 0 3.24588,7.5061a10.2651,10.2651 0 0 0 13.79499,-0.20287a9.51449,9.51449 0 0 0 3.04301,-7.10036a9.9608,9.9608 0 0 0 -9.94051,-9.94051m4.86882,15.0122a7.0395,7.0395 0 0 1 -5.07169,2.02868a7.30323,7.30323 0 1 1 0,-14.60646a7.0395,7.0395 0 0 1 5.07169,2.02868a7.58725,7.58725 0 0 1 0,10.54911"/>
    <path stroke="null" id="svg_55" d="m268.96812,346.29793l3.04301,0l2.02868,-4.66595l8.1147,0l2.02868,4.66595l3.44875,0l-9.12904,-20.28676l-9.53478,20.28676zm6.49176,-7.30323l3.04301,-6.49176l2.84015,6.49176l-5.88316,0z"/>
    <path stroke="null" id="svg_56" d="m222.71431,198.81322a55.32198,55.32198 0 0 0 23.93837,-45.0366l-26.16991,0a28.78691,28.78691 0 0 1 -29.01006,28.60433a28.40146,28.40146 0 0 1 -23.53264,-12.57779a28.40146,28.40146 0 0 1 -5.07169,-16.02654l-26.16991,0a55.01768,55.01768 0 0 0 55.17998,54.77424a54.46994,54.46994 0 0 0 30.83587,-9.73764"/>
    <path stroke="null" id="svg_57" d="m348.08646,265.75951l32.45881,0l29.61866,-75.87247l29.4158,75.87247l33.27028,0q-23.7355,-56.29575 -47.47101,-112.38863l-29.82153,0c-14.60646,34.69035 -29.4158,69.3807 -44.02226,104.07106l-3.44875,8.31757"/>
    <path stroke="null" id="svg_58" d="m368.77895,161.89132l3.44875,-8.31757l-32.45881,0l-29.61866,75.87247l-29.4158,-75.87247l-33.27028,0c15.82367,37.5305 31.64734,74.85813 47.47101,112.38863l29.82153,0q22.31543,-52.03553 44.02226,-104.07106"/>
    <polygon stroke="null" id="svg_59" points="102.41387939453125,222.95440673828125 49.87116241455078,153.97950744628906 27.149993896484375,153.97950744628906 27.149993896484375,266.1652526855469 51.494110107421875,266.1652526855469 51.494110107421875,194.755859375 105.86260986328125,266.1652526855469 126.75798034667969,266.1652526855469 126.75798034667969,153.97950744628906 102.41387939453125,153.97950744628906 102.41387939453125,222.95440673828125 "/>
    <path stroke="null" id="svg_60" class="cls-1" d="m162.66552,265.96238a28.92891,28.92891 0 0 1 57.81725,0l26.16991,0a54.99739,54.99739 0 0 0 -109.95421,0l25.96705,0z" fill="#338141"/>
   </g>
  </g>
 </g>

</svg>